<?xml version="1.0" encoding="UTF-8"?>
<svg id="Layer_2" data-name="Layer 2" xmlns="http://www.w3.org/2000/svg" viewBox="0 0 215.54 58.52">
  <defs>
    <style>
      .cls-1 {
        fill: #58585a;
      }

      .cls-1, .cls-2, .cls-3, .cls-4 {
        stroke-width: 0px;
      }

      .cls-2 {
        fill: #779346;
      }

      .cls-3 {
        fill: #d9640e;
      }

      .cls-4 {
        fill: #173883;
      }
    </style>
  </defs>
  <g id="Layer_1-2" data-name="Layer 1">
    <g>
      <path class="cls-2" d="M.56,0S-3.84,12.19,12.08,13.63c7.2.65,19.51-3.75,34.85,8.29,7.63,5.98,7.06,13.27,4.9,18.75-.14.94-.36,1.66-.72,2.45,1.94-3.39,4.1-8.08,5.11-13.05,2.59-12.55-3.24-27.18-40.46-26.9C5.09,3.46,1.06.07.56,0Z"/>
      <path class="cls-1" d="M161.09,51.52h1.14v-5.47c.04-1.84,1.13-3.22,2.95-3.22s2.38,1.22,2.38,2.83v5.85h1.14v-6.04c0-2.23-.8-3.62-3.43-3.62-1.33,0-2.58.76-3,1.89h-.04v-1.62h-1.14v9.38Z"/>
      <path class="cls-1" d="M152.61,46.18c.18-1.71,1.22-3.34,3.09-3.34s2.93,1.62,2.98,3.34h-6.07ZM159.83,47.14c.09-2.63-1.11-5.27-4.13-5.27s-4.23,2.49-4.23,4.96c0,2.67,1.25,4.96,4.23,4.96,2.36,0,3.6-1.24,4.09-3.36h-1.15c-.36,1.42-1.27,2.4-2.95,2.4-2.2,0-3.07-2.02-3.09-3.69h7.22Z"/>
      <rect class="cls-1" x="148.87" y="38.55" width="1.15" height="12.98"/>
      <path class="cls-1" d="M140.73,45.02c.04-1.53,1.09-2.18,2.51-2.18s2.45.38,2.45,1.93c0,1.04-.53,1.16-1.47,1.27-2.47.29-5.04.38-5.04,3.02,0,1.89,1.42,2.75,3.14,2.75s2.62-.69,3.42-1.91h.04c0,.98.18,1.64,1.35,1.64.31,0,.49-.02.74-.07v-.96c-.09.04-.24.07-.36.07-.46,0-.67-.26-.67-.69v-4.98c0-2.51-1.8-3.02-3.45-3.02-2.15,0-3.69.95-3.8,3.15h1.15ZM145.69,47.89c.02,1.84-1.53,2.95-3.27,2.95-1.07,0-2.09-.71-2.09-1.85,0-1.84,2.42-1.82,4.36-2.16.31-.05.82-.15.96-.42h.04v1.49Z"/>
      <path class="cls-1" d="M134.24,51.52h1.15v-5c0-1.94,1.42-3.47,3.49-3.36v-1.15c-1.69-.07-2.96.82-3.54,2.33h-.04v-2.2h-1.06v9.38Z"/>
      <path class="cls-1" d="M130.95,39.33h-1.14v2.82h-1.64v.96h1.64v6.42c-.02,1.6.51,2.11,2.04,2.11.35,0,.67-.04,1.02-.04v-.98c-.33.04-.65.05-.98.05-.82-.05-.93-.49-.93-1.24v-6.33h1.91v-.96h-1.91v-2.82Z"/>
      <path class="cls-1" d="M119.63,51.52h1.15v-5.47c.04-1.84,1.13-3.22,2.94-3.22s2.38,1.22,2.38,2.83v5.85h1.15v-6.04c0-2.23-.8-3.62-3.44-3.62-1.33,0-2.58.76-3,1.89h-.04v-1.62h-1.15v9.38Z"/>
      <path class="cls-1" d="M111.16,46.18c.18-1.71,1.22-3.34,3.09-3.34s2.93,1.62,2.98,3.34h-6.07ZM118.37,47.14c.09-2.63-1.11-5.27-4.12-5.27s-4.24,2.49-4.24,4.96c0,2.67,1.25,4.96,4.24,4.96,2.36,0,3.6-1.24,4.09-3.36h-1.15c-.36,1.42-1.27,2.4-2.94,2.4-2.2,0-3.07-2.02-3.09-3.69h7.21Z"/>
      <path class="cls-1" d="M109.08,45.09c-.25-2.14-1.8-3.22-3.8-3.22-2.87,0-4.44,2.27-4.44,4.96s1.56,4.96,4.44,4.96c2.09,0,3.56-1.38,3.87-3.63h-1.14c-.15,1.56-1.31,2.67-2.73,2.67-2.2,0-3.29-2-3.29-4s1.09-4,3.29-4c1.49,0,2.34.85,2.65,2.25h1.15Z"/>
      <rect class="cls-1" x="93.23" y="38.69" width="1.24" height="1.84"/>
      <rect class="cls-1" x="96.45" y="38.69" width="1.24" height="1.84"/>
      <path class="cls-1" d="M95.45,42.84c2.2,0,3.29,2,3.29,4s-1.09,4-3.29,4-3.29-2-3.29-4,1.09-4,3.29-4M95.45,41.87c-2.87,0-4.43,2.27-4.43,4.96s1.56,4.96,4.43,4.96,4.44-2.27,4.44-4.96-1.56-4.96-4.44-4.96"/>
      <rect class="cls-1" x="88.42" y="38.55" width="1.15" height="1.84"/>
      <path class="cls-1" d="M88.42,52.67c0,.78-.14,1.36-1.04,1.36-.18.02-.44,0-.62-.02v.95c.27,0,.53.04.8.04,1.62,0,2-1.2,2-2.6v-10.25h-1.15v10.52Z"/>
      <rect class="cls-1" x="85.33" y="38.55" width="1.14" height="12.98"/>
      <rect class="cls-1" x="82.24" y="38.55" width="1.14" height="1.84"/>
      <rect class="cls-1" x="82.24" y="42.15" width="1.14" height="9.38"/>
      <path class="cls-1" d="M67.35,51.52h1.14v-5.24c.02-1.96.82-3.45,2.8-3.45,1.45,0,1.98,1.05,1.96,2.33v6.36h1.15v-5.31c0-1.75.56-3.38,2.55-3.38,1.64,0,2.22.83,2.22,2.38v6.31h1.14v-6.36c0-2.22-1.06-3.29-3.11-3.29-1.24,0-2.42.6-2.98,1.84-.35-1.24-1.45-1.84-2.69-1.84-1.49,0-2.47.73-3.07,1.85h-.05v-1.58h-1.05v9.38Z"/>
      <path class="cls-1" d="M207.93,33.35h1.14v-5.47c.04-1.84,1.13-3.22,2.94-3.22s2.38,1.22,2.38,2.84v5.85h1.14v-6.03c0-2.24-.8-3.62-3.43-3.62-1.33,0-2.58.76-3,1.89h-.04v-5.22h-1.14v12.98Z"/>
      <path class="cls-1" d="M206.54,26.91c-.25-2.14-1.8-3.22-3.8-3.22-2.87,0-4.43,2.27-4.43,4.96s1.56,4.96,4.43,4.96c2.09,0,3.56-1.38,3.87-3.64h-1.14c-.15,1.57-1.31,2.67-2.73,2.67-2.2,0-3.29-2-3.29-4s1.09-4,3.29-4c1.49,0,2.35.85,2.65,2.25h1.14Z"/>
      <path class="cls-1" d="M192.91,24.66c2.2,0,3.29,2,3.29,4s-1.09,4-3.29,4-3.29-2-3.29-4,1.09-4,3.29-4M192.91,23.7c-2.87,0-4.43,2.27-4.43,4.96s1.56,4.96,4.43,4.96,4.44-2.27,4.44-4.96-1.56-4.96-4.44-4.96"/>
      <rect class="cls-1" x="177.72" y="27.82" width="4.54" height="1.05"/>
      <polygon class="cls-1" points="168.9 33.35 170.05 33.35 170.05 29.79 171.9 28.24 175.61 33.35 177.04 33.35 172.77 27.44 176.77 23.97 175.24 23.97 170.05 28.51 170.05 20.37 168.9 20.37 168.9 33.35"/>
      <rect class="cls-1" x="165.83" y="20.37" width="1.15" height="1.84"/>
      <path class="cls-1" d="M161.72,33.35h1.14v-8.42h1.85v-.96h-1.85v-.82c.02-1.02-.02-1.82,1.25-1.82.27,0,.53.04.84.09v-.98c-.36-.06-.64-.07-.96-.07-1.84,0-2.29,1.13-2.27,2.75v.85h-1.6v.96h1.6v8.42Z"/>
      <rect class="cls-1" x="165.83" y="23.97" width="1.15" height="9.38"/>
      <path class="cls-1" d="M152.98,26.84c.04-1.53,1.09-2.18,2.51-2.18,1.34,0,2.45.38,2.45,1.93,0,1.04-.53,1.16-1.47,1.27-2.47.29-5.03.38-5.03,3.02,0,1.89,1.42,2.75,3.14,2.75s2.62-.69,3.42-1.91h.04c0,.98.18,1.63,1.34,1.63.31,0,.49-.02.75-.07v-.96c-.09.04-.24.07-.36.07-.45,0-.67-.25-.67-.69v-4.98c0-2.51-1.8-3.02-3.45-3.02-2.15,0-3.69.95-3.8,3.15h1.15ZM157.94,29.71c.02,1.84-1.53,2.94-3.27,2.94-1.07,0-2.09-.71-2.09-1.85,0-1.84,2.42-1.82,4.36-2.16.31-.05.82-.14.96-.42h.04v1.49Z"/>
      <path class="cls-1" d="M146.49,33.35h1.15v-5c0-1.94,1.42-3.47,3.49-3.36v-1.15c-1.69-.07-2.96.82-3.54,2.33h-.04v-2.2h-1.05v9.38Z"/>
      <path class="cls-1" d="M143.2,21.15h-1.14v2.82h-1.64v.96h1.64v6.42c-.02,1.6.51,2.11,2.04,2.11.34,0,.67-.04,1.02-.04v-.98c-.33.04-.66.05-.98.05-.82-.05-.93-.49-.93-1.23v-6.33h1.91v-.96h-1.91v-2.82Z"/>
      <path class="cls-1" d="M132.49,31.42v1.93h.76c.04.6-.24,1.49-.84,1.71v.78c1.09-.31,1.58-1.42,1.6-2.47v-1.95h-1.53Z"/>
      <rect class="cls-1" x="125.37" y="27.82" width="4.54" height="1.05"/>
      <path class="cls-1" d="M123.66,26.71c-.07-2.04-1.56-3.02-3.43-3.02-1.65,0-3.53.73-3.53,2.64,0,1.6,1.13,2.11,2.62,2.51l1.47.33c1.04.26,2.05.62,2.05,1.71,0,1.31-1.49,1.78-2.56,1.78-1.53,0-2.67-.8-2.76-2.34h-1.14c.18,2.29,1.67,3.31,3.85,3.31,1.75,0,3.76-.78,3.76-2.82,0-1.64-1.36-2.4-2.67-2.6l-1.53-.34c-.78-.2-1.95-.56-1.95-1.58,0-1.22,1.2-1.62,2.22-1.62,1.31,0,2.4.64,2.45,2.05h1.14Z"/>
      <path class="cls-1" d="M114.99,23.97h-1.14v1.62h-.04c-.46-1.04-1.62-1.89-2.98-1.89-2.71,0-4.23,2.15-4.23,4.73s1.24,4.82,4.23,4.82c1.35,0,2.45-.78,2.98-1.93h.04v1.27c0,2.29-.91,3.54-3.02,3.54-1.27,0-2.49-.49-2.74-1.87h-1.15c.16,2,2.02,2.83,3.89,2.83,3.07,0,4.14-1.71,4.16-4.51v-8.62ZM110.83,32.28c-2.11,0-3.09-1.83-3.09-3.73s.91-3.89,3.09-3.89,3.02,2.05,3.02,3.89-1.04,3.73-3.02,3.73"/>
      <path class="cls-1" d="M97.56,33.35h1.15v-5.47c.04-1.84,1.13-3.22,2.94-3.22s2.38,1.22,2.38,2.84v5.85h1.15v-6.03c0-2.24-.8-3.62-3.44-3.62-1.33,0-2.58.76-3,1.89h-.04v-1.62h-1.15v9.38Z"/>
      <rect class="cls-1" x="94.51" y="20.37" width="1.15" height="1.84"/>
      <rect class="cls-1" x="94.51" y="23.97" width="1.15" height="9.38"/>
      <path class="cls-1" d="M89.04,33.35h1.14v-5c0-1.94,1.42-3.47,3.49-3.36v-1.15c-1.69-.07-2.96.82-3.54,2.33h-.04v-2.2h-1.05v9.38Z"/>
      <rect class="cls-1" x="81.27" y="20.52" width="1.24" height="1.84"/>
      <rect class="cls-1" x="84.49" y="20.52" width="1.24" height="1.84"/>
      <path class="cls-1" d="M80.91,26.84c.04-1.53,1.09-2.18,2.51-2.18,1.35,0,2.45.38,2.45,1.93,0,1.04-.53,1.16-1.47,1.27-2.47.29-5.04.38-5.04,3.02,0,1.89,1.42,2.75,3.14,2.75s2.62-.69,3.42-1.91h.04c0,.98.18,1.63,1.35,1.63.31,0,.49-.02.75-.07v-.96c-.09.04-.24.07-.36.07-.45,0-.67-.25-.67-.69v-4.98c0-2.51-1.8-3.02-3.45-3.02-2.14,0-3.69.95-3.8,3.15h1.14ZM85.87,29.71c.02,1.84-1.53,2.94-3.27,2.94-1.07,0-2.09-.71-2.09-1.85,0-1.84,2.42-1.82,4.36-2.16.31-.05.82-.14.96-.42h.04v1.49Z"/>
      <polygon class="cls-1" points="67.55 33.35 68.79 33.35 68.79 22.37 68.82 22.37 76.39 33.35 77.77 33.35 77.77 20.37 76.53 20.37 76.53 31.35 76.5 31.35 68.93 20.37 67.55 20.37 67.55 33.35"/>
      <path class="cls-4" d="M18.7,24.37h0s-8.86,38.14,16.92,29.71c1.3-.07,6.77-2.09,6.77-2.09-2.38,1.37-5.4,2.74-8.64,4.04C19.2,61.65-.02,61.43,10.78,15.07l7.92,9.3Z"/>
      <path class="cls-3" d="M18.7,24.37c2.66-.43,8.06-1.08,14.26-.29,8.71,1.08,19.01,5.19,19.08,15.14-.22,2.88-1.01,4.4-2.81,7-.43.58-.94,1.3-1.51,1.95,0-.22,0-.29.07-.87.22-1.59.5-4.69-1.08-7.72-1.94-3.97-8.71-6.49-19.22-6.27-2.16-2.31-5.33-5.41-8.78-8.94Z"/>
      <path class="cls-4" d="M27.48,33.31h0s1.08,17.95,20.23,14.78c.07,0-1.8,1.73-4.68,3.53-2.95,1.8-7.13,3.24-11.16,1.95-12.46-3.82-4.39-20.26-4.39-20.26Z"/>
    </g>
  </g>
</svg>