<?xml version="1.0" encoding="UTF-8"?>
<svg id="Layer_2" data-name="Layer 2" xmlns="http://www.w3.org/2000/svg" viewBox="0 0 200.7 187.4">
  <defs>
    <style>
      .cls-1 {
        fill: #fc0;
      }

      .cls-1, .cls-2, .cls-3 {
        stroke-width: 0px;
      }

      .cls-4 {
        fill: #231f20;
      }

      .cls-4, .cls-5 {
        font-family: Arial-BoldMT, Arial;
        font-size: 21px;
        font-weight: 700;
      }

      .cls-2, .cls-5 {
        fill: #039;
      }

      .cls-3 {
        fill: #fff;
      }
    </style>
  </defs>
  <g id="Layer_1-2" data-name="Layer 1">
    <g>
      <rect class="cls-3" x="8.84" width="183.15" height="124.41"/>
      <rect class="cls-2" x="12.36" y="3.41" width="176.11" height="117.41"/>
      <g>
        <polygon class="cls-1" points="96.66 28.99 100.38 26.28 104.09 28.99 102.68 24.61 106.45 21.89 101.8 21.89 100.38 17.45 98.95 21.9 94.3 21.89 98.08 24.61 96.66 28.99"/>
        <polygon class="cls-1" points="77.43 34.16 81.15 31.45 84.86 34.16 83.45 29.77 87.22 27.06 82.57 27.06 81.15 22.62 79.72 27.07 75.07 27.06 78.84 29.77 77.43 34.16"/>
        <polygon class="cls-1" points="67.08 36.72 65.65 41.17 61 41.16 64.77 43.87 63.36 48.26 67.08 45.55 70.79 48.26 69.38 43.87 73.15 41.16 68.5 41.16 67.08 36.72"/>
        <polygon class="cls-1" points="61.91 64.75 65.63 67.47 64.22 63.08 67.99 60.37 63.34 60.37 61.91 55.93 60.49 60.38 55.84 60.37 59.61 63.08 58.2 67.47 61.91 64.75"/>
        <polygon class="cls-1" points="68.5 79.63 67.08 75.19 65.65 79.64 61 79.63 64.77 82.35 63.36 86.73 67.08 84.01 70.79 86.73 69.38 82.35 73.15 79.63 68.5 79.63"/>
        <polygon class="cls-1" points="82.6 93.73 81.17 89.29 79.75 93.74 75.1 93.73 78.87 96.44 77.46 100.83 81.18 98.12 84.89 100.83 83.48 96.44 87.25 93.73 82.6 93.73"/>
        <polygon class="cls-1" points="101.8 98.84 100.38 94.4 98.96 98.84 94.31 98.84 98.08 101.55 96.67 105.94 100.38 103.23 104.1 105.94 102.68 101.55 106.46 98.84 101.8 98.84"/>
        <polygon class="cls-1" points="121.01 93.73 119.59 89.29 118.16 93.74 113.52 93.73 117.28 96.44 115.87 100.83 119.59 98.12 123.31 100.83 121.89 96.44 125.66 93.73 121.01 93.73"/>
        <polygon class="cls-1" points="135.11 79.63 133.69 75.19 132.26 79.64 127.61 79.63 131.39 82.35 129.97 86.73 133.69 84.01 137.4 86.73 135.99 82.35 139.76 79.63 135.11 79.63"/>
        <polygon class="cls-1" points="144.87 60.32 140.22 60.32 138.79 55.87 137.37 60.32 132.72 60.32 136.49 63.03 135.08 67.41 138.79 64.7 142.51 67.41 141.09 63.03 144.87 60.32"/>
        <polygon class="cls-1" points="129.97 48.2 133.69 45.49 137.4 48.2 135.99 43.82 139.76 41.11 135.11 41.11 133.69 36.67 132.26 41.11 127.61 41.11 131.39 43.82 129.97 48.2"/>
        <polygon class="cls-1" points="119.64 22.62 118.22 27.07 113.57 27.06 117.34 29.78 115.93 34.16 119.65 31.45 123.36 34.16 121.95 29.78 125.72 27.06 121.06 27.06 119.64 22.62"/>
      </g>
    </g>
    <text class="cls-4" transform="translate(9.31 154.29)"><tspan x="0" y="0">Medfinansieras av</tspan><tspan x="-9.31" y="25.2">Europeiska unionen</tspan></text>
    <text class="cls-5" transform="translate(9.31 154.29)"><tspan x="0" y="0">Medfinansieras av</tspan><tspan x="-9.31" y="25.2">Europeiska unionen</tspan></text>
  </g>
</svg>