<?xml version="1.0" encoding="UTF-8"?>
<svg id="Layer_2" data-name="Layer 2" xmlns="http://www.w3.org/2000/svg" viewBox="0 0 272.4 76.78">
  <defs>
    <style>
      .cls-1 {
        fill: #fff;
        stroke-width: 0px;
      }
    </style>
  </defs>
  <g id="Layer_1-2" data-name="Layer 1">
    <g>
      <path class="cls-1" d="M56.09,50.67l-46.79,14.51L0,55.04,53.26,5.42l17.01,53.87-7.6,17.5-6.59-26.1ZM56.01,50.27l-7.03-27.96-31.52,30.19,38.55-2.22Z"/>
      <path class="cls-1" d="M86.56,33.14l-7.56,43.16-5.86-22.71,7.92-36.49,7.27,5.86-1.13,6.38,11.88-10.18,6.51,9.54-10.51,9.46,1.05-8.41-9.58,3.39Z"/>
      <path class="cls-1" d="M105.94,46.19L116.33,0l7.27,5.86-5.25,26.75,16.49-11.35,5.7,9.94-6.1,26.18-13.94,11.6-14.55-22.79ZM117.7,35.92l-2.59,13.17,8.69,9.33,8.08-26.19-14.18,3.68Z"/>
      <path class="cls-1" d="M152.51,46.39l-2.14,7.96,26.71,13.58-29.94-4.45-5.7-7.8,6.75-32.73,25.34-1.25.61,19.84-21.62,4.85ZM153,44.65l13.33-9.46v-4.65l-9.09-1.66-4.24,15.76Z"/>
      <polygon class="cls-1" points="233.97 15.56 272.4 2.91 176.95 18.14 201.68 26.14 220.51 19.96 218.41 75.08 233.97 15.56"/>
      <g>
        <polygon class="cls-1" points="204.27 9.48 205.15 5.46 193.84 0 191.55 11.51 204.27 9.48"/>
        <polygon class="cls-1" points="188.59 26.38 183.17 53.58 190.08 73.79 199.74 29.99 188.59 26.38"/>
      </g>
    </g>
  </g>
</svg>