<?xml version="1.0" encoding="UTF-8"?>
<svg id="Layer_2" data-name="Layer 2" xmlns="http://www.w3.org/2000/svg" viewBox="0 0 492.05 129.06">
  <defs>
    <style>
      .cls-1 {
        fill: #1d1d1b;
      }

      .cls-1, .cls-2 {
        stroke-width: 0px;
      }

      .cls-2 {
        fill: #e10e49;
      }
    </style>
  </defs>
  <g id="Layer_1-2" data-name="Layer 1">
    <path class="cls-2" d="M68.94,12.01C61.31,4.38,51.17.18,40.38.18,30.29.18,20.77,3.87,13.34,10.59l7.71,7.85c5.36-4.7,12.15-7.27,19.33-7.27,7.85,0,15.23,3.06,20.78,8.61l7.78-7.78Z"/>
    <path class="cls-2" d="M18.14,59.74c-4.61-5.33-7.14-12.06-7.14-19.18s2.54-13.9,7.19-19.24l-7.72-7.86C3.71,20.9,0,30.44,0,40.56s3.69,19.61,10.41,27.04l7.72-7.86Z"/>
    <path class="cls-2" d="M61.16,61.34c-5.55,5.55-12.93,8.61-20.78,8.61-7.28,0-14.14-2.64-19.53-7.44l-7.71,7.85c7.46,6.83,17.05,10.59,27.24,10.59,10.79,0,20.93-4.2,28.56-11.83l-7.78-7.78Z"/>
    <path class="cls-2" d="M143.14,61.35c-5.55,5.44-12.88,8.43-20.66,8.43-16.81,0-30.36-14.21-29.28-31.25.96-15.01,13.47-27.03,28.51-27.42,14.63-.38,26.95,10.02,29.59,23.8h-28.82v11.05h40.02C165.8,21.25,146.56.05,122.47.05s-41.93,19.7-40.29,43.27c1.41,20.29,18.12,36.58,38.43,37.48,11.53.51,22.45-3.74,30.55-11.84l-8.03-7.6Z"/>
    <path class="cls-2" d="M372.77,11c-14.79,0-26.82,13.1-26.82,29.2v40.57h-11v-40.57c0-22.16,16.97-40.2,37.82-40.2v11Z"/>
    <rect class="cls-2" x="386.87" y=".04" width="11" height="80.79"/>
    <polygon class="cls-2" points="323.76 .05 267.81 .05 267.81 11.05 290.29 11.05 290.29 80.82 301.29 80.82 301.29 11.05 323.76 11.05 323.76 .05"/>
    <g>
      <path class="cls-1" d="M18.62,97.61c.29.32.44.73.44,1.22v13.61c0,1.87-.41,3.54-1.23,5.03-.82,1.49-1.95,2.65-3.39,3.49-1.44.84-3.06,1.26-4.87,1.26s-3.47-.42-4.92-1.26c-1.45-.84-2.59-2-3.41-3.49-.82-1.49-1.23-3.17-1.23-5.03v-13.61c0-.5.16-.9.49-1.22.33-.32.75-.48,1.27-.48.44,0,.84.17,1.18.5.34.33.51.73.51,1.21v13.61c0,1.23.28,2.33.84,3.31.56.98,1.31,1.74,2.25,2.29.94.54,1.95.82,3.02.82s2.17-.27,3.13-.82c.96-.54,1.73-1.31,2.3-2.29.57-.98.86-2.08.86-3.31v-13.61c0-.5.14-.9.42-1.22.28-.32.67-.48,1.16-.48s.88.16,1.18.48Z"/>
      <path class="cls-1" d="M40.19,110.64v9.64c0,.47-.16.87-.47,1.2-.32.33-.72.5-1.21.5s-.86-.17-1.18-.5c-.32-.33-.47-.73-.47-1.2v-9.6c0-1.39-.32-2.5-.95-3.33-.63-.83-1.66-1.24-3.09-1.24-.94,0-1.79.21-2.55.62-.76.41-1.36.97-1.79,1.67-.43.7-.65,1.46-.65,2.28v9.6c0,.47-.16.87-.47,1.2-.32.33-.72.5-1.21.5s-.89-.16-1.2-.48c-.3-.32-.46-.73-.46-1.22v-15.17c0-.47.16-.87.47-1.21.32-.33.71-.5,1.18-.5s.9.17,1.21.5c.32.33.47.73.47,1.21v1.24c.61-.94,1.46-1.74,2.55-2.39,1.09-.65,2.26-.97,3.5-.97,4.22,0,6.33,2.55,6.33,7.65Z"/>
      <path class="cls-1" d="M45.2,100.52c-.29-.25-.44-.64-.44-1.19v-.57c0-.57.16-.97.47-1.2.32-.24.8-.35,1.46-.35s1.13.12,1.42.37c.29.25.44.64.44,1.19v.57c0,.57-.15.97-.46,1.2-.3.24-.79.35-1.44.35s-1.17-.12-1.46-.37ZM47.87,121.48c-.32.33-.72.5-1.21.5s-.86-.17-1.18-.5c-.32-.33-.47-.73-.47-1.2v-15.34c0-.47.16-.87.47-1.2.32-.33.71-.5,1.18-.5s.9.17,1.21.5c.32.33.47.73.47,1.2v15.34c0,.47-.16.87-.47,1.2Z"/>
      <path class="cls-1" d="M68.35,103.67c.3.3.46.64.46,1.04,0,.21-.08.51-.25.89l-6.68,15.31c-.14.31-.34.56-.6.74-.26.19-.54.3-.84.32-.37.05-.72-.02-1.04-.21-.32-.19-.56-.47-.72-.85l-6.68-15.31c-.12-.35-.18-.65-.18-.89,0-.38.15-.72.46-1.03.3-.31.7-.46,1.2-.46.35,0,.67.09.95.27.28.18.5.44.67.8l5.31,12.44,5.31-12.44c.33-.71.83-1.06,1.51-1.06.44,0,.82.15,1.12.44Z"/>
      <path class="cls-1" d="M87.9,113.06c-.33.3-.72.44-1.16.44h-12.38c.16,1.72.81,3.11,1.95,4.15,1.14,1.04,2.53,1.56,4.17,1.56,1.12,0,2.04-.17,2.74-.5.7-.33,1.32-.76,1.86-1.28.35-.21.69-.32,1.02-.32.4,0,.73.14,1,.42.27.28.4.61.4.99,0,.5-.23.94-.7,1.35-.68.69-1.58,1.26-2.71,1.74-1.12.47-2.27.71-3.45.71-1.9,0-3.57-.4-5.01-1.21-1.44-.8-2.56-1.92-3.34-3.37-.79-1.44-1.18-3.07-1.18-4.89,0-1.98.4-3.73,1.21-5.23.81-1.5,1.88-2.65,3.2-3.46,1.32-.8,2.75-1.2,4.27-1.2s2.91.39,4.22,1.17c1.31.78,2.37,1.86,3.16,3.22.8,1.37,1.21,2.91,1.23,4.61-.02.43-.2.79-.53,1.08ZM76.4,107.22c-.96.74-1.59,1.9-1.9,3.45h10.37v-.28c-.12-1.25-.67-2.28-1.67-3.08-1-.8-2.13-1.2-3.39-1.2s-2.45.37-3.41,1.12Z"/>
      <path class="cls-1" d="M103.05,103.46c.45.32.67.71.67,1.19,0,.57-.15,1-.44,1.29-.29.3-.65.44-1.07.44-.21,0-.53-.07-.95-.21-.49-.17-.88-.25-1.16-.25-.73,0-1.44.25-2.13.76-.69.51-1.25,1.21-1.69,2.09-.43.89-.65,1.87-.65,2.96v8.54c0,.47-.16.87-.47,1.2-.32.33-.72.5-1.21.5s-.89-.16-1.2-.48c-.3-.32-.46-.73-.46-1.22v-15.17c0-.47.16-.87.47-1.21.32-.33.71-.5,1.18-.5s.9.17,1.21.5c.32.33.47.73.47,1.21v1.81c.52-1.16,1.29-2.1,2.32-2.82,1.03-.72,2.2-1.09,3.52-1.12.61,0,1.14.16,1.58.48Z"/>
      <path class="cls-1" d="M105.44,118.11c0-.47.25-.87.74-1.21.23-.16.5-.25.81-.25.42,0,.81.18,1.16.53.7.8,1.46,1.41,2.27,1.81.81.4,1.78.6,2.9.6.89-.02,1.68-.23,2.36-.62.68-.39,1.02-1.02,1.02-1.9,0-.8-.35-1.42-1.04-1.84-.69-.43-1.71-.82-3.04-1.17-1.31-.35-2.4-.73-3.27-1.12-.87-.39-1.6-.96-2.2-1.7-.6-.74-.9-1.72-.9-2.92,0-1.06.3-2,.9-2.8.6-.8,1.39-1.43,2.39-1.88,1-.45,2.08-.67,3.25-.67s2.24.21,3.36.64c1.11.43,2.02,1.08,2.72,1.95.28.33.42.67.42,1.03,0,.38-.19.74-.56,1.1-.23.21-.53.32-.88.32-.42,0-.76-.14-1.02-.43-.49-.57-1.1-1-1.81-1.31-.72-.31-1.51-.46-2.37-.46s-1.65.18-2.27.55c-.62.37-.93.99-.93,1.86.02.83.38,1.44,1.07,1.84.69.4,1.75.79,3.18,1.17,1.24.33,2.27.69,3.09,1.06.82.38,1.51.94,2.07,1.68.56.74.84,1.72.84,2.92,0,1.11-.32,2.07-.95,2.89s-1.46,1.44-2.48,1.88c-1.02.44-2.1.66-3.25.66-1.48,0-2.84-.26-4.1-.78-1.25-.52-2.31-1.35-3.18-2.48-.21-.33-.32-.65-.32-.96Z"/>
      <path class="cls-1" d="M123.6,100.52c-.29-.25-.44-.64-.44-1.19v-.57c0-.57.16-.97.47-1.2.32-.24.8-.35,1.46-.35s1.13.12,1.42.37c.29.25.44.64.44,1.19v.57c0,.57-.15.97-.46,1.2-.3.24-.79.35-1.44.35s-1.17-.12-1.46-.37ZM126.27,121.48c-.32.33-.72.5-1.21.5s-.86-.17-1.18-.5c-.32-.33-.47-.73-.47-1.2v-15.34c0-.47.16-.87.47-1.2.32-.33.71-.5,1.18-.5s.9.17,1.21.5c.32.33.47.73.47,1.2v15.34c0,.47-.16.87-.47,1.2Z"/>
      <path class="cls-1" d="M136.56,106.7v10.56c0,1.18.53,1.77,1.58,1.77.16,0,.39-.04.67-.12.28-.08.5-.12.67-.12.3,0,.56.13.77.39.21.26.32.59.32.99,0,.5-.28.92-.84,1.28-.56.35-1.2.53-1.9.53-.77,0-1.48-.08-2.13-.25-.65-.17-1.22-.58-1.72-1.26-.5-.67-.76-1.69-.76-3.06v-10.7h-2.04c-.45,0-.81-.15-1.11-.44-.29-.3-.44-.67-.44-1.12s.15-.82.44-1.1c.29-.28.66-.43,1.11-.43h2.04v-2.98c0-.47.16-.87.47-1.21.32-.33.72-.5,1.21-.5s.86.17,1.18.5c.32.33.47.73.47,1.21v2.98h2.92c.45,0,.81.15,1.11.44.29.3.44.67.44,1.12s-.15.82-.44,1.1c-.29.28-.66.43-1.11.43h-2.92Z"/>
      <path class="cls-1" d="M159.85,103.73c.32.33.47.73.47,1.2v15.31c0,2.95-.81,5.16-2.43,6.63-1.62,1.46-3.75,2.2-6.4,2.2-.87,0-1.72-.08-2.57-.25-.84-.17-1.54-.39-2.07-.67-.87-.4-1.3-.94-1.3-1.63,0-.12.02-.27.07-.46.14-.4.34-.71.6-.92.26-.21.55-.32.88-.32.19,0,.36.04.53.11.73.33,1.37.59,1.93.78.56.19,1.22.28,1.97.28,3.63,0,5.45-1.88,5.45-5.63v-.71c-.63.85-1.45,1.51-2.44,1.98-1,.47-2.14.71-3.43.71-1.95,0-3.46-.63-4.55-1.88-1.09-1.25-1.63-2.89-1.63-4.93v-10.6c0-.5.15-.9.46-1.22.3-.32.7-.48,1.2-.48s.9.17,1.21.5c.32.33.47.73.47,1.2v9.71c0,1.56.34,2.71,1.02,3.45.68.74,1.71,1.12,3.09,1.12s2.44-.43,3.3-1.28c.87-.85,1.3-1.95,1.3-3.3v-9.71c0-.5.15-.9.46-1.22.3-.32.7-.48,1.2-.48s.9.17,1.21.5Z"/>
      <path class="cls-1" d="M191.23,117.65c-.82,1.46-1.94,2.61-3.36,3.44-1.42.83-2.98,1.24-4.69,1.24s-3.28-.41-4.69-1.24c-1.42-.83-2.54-1.97-3.36-3.44-.82-1.46-1.23-3.12-1.23-4.96s.41-3.51,1.23-5c.82-1.49,1.94-2.65,3.36-3.47,1.42-.83,2.98-1.24,4.69-1.24s3.28.41,4.69,1.24c1.42.83,2.54,1.98,3.36,3.47.82,1.49,1.23,3.15,1.23,5s-.41,3.5-1.23,4.96ZM188.33,109.27c-.53-1-1.24-1.78-2.15-2.34-.9-.55-1.9-.83-3.01-.83s-2.1.28-3.01.83c-.9.56-1.62,1.34-2.15,2.34-.53,1-.79,2.14-.79,3.42s.26,2.37.79,3.37c.53.99,1.24,1.77,2.15,2.32.9.56,1.9.83,3.01.83s2.1-.28,3.01-.83c.9-.55,1.62-1.33,2.15-2.32s.79-2.11.79-3.37-.26-2.42-.79-3.42Z"/>
      <path class="cls-1" d="M202.5,99.51c-.36.47-.55,1.05-.55,1.74v2.48h3.48c.47,0,.85.15,1.14.44.29.3.44.67.44,1.12s-.15.82-.44,1.1c-.29.28-.67.42-1.14.42h-3.48v13.47c0,.47-.16.87-.47,1.2-.32.33-.72.5-1.21.5s-.86-.17-1.18-.5c-.32-.33-.47-.73-.47-1.2v-13.47h-2.18c-.45,0-.82-.14-1.12-.42-.31-.28-.46-.65-.46-1.1s.15-.82.46-1.12c.3-.3.68-.44,1.12-.44h2.18v-2.48c0-1.65.53-2.97,1.58-3.95,1.05-.98,2.54-1.47,4.47-1.47.8,0,1.5.15,2.11.44.61.3.91.74.91,1.33,0,.45-.14.82-.4,1.12-.27.3-.59.44-.97.44-.09,0-.35-.05-.77-.14-.52-.14-.96-.21-1.34-.21-.77,0-1.34.24-1.71.71Z"/>
      <path class="cls-1" d="M239.22,120.45c0,.47-.16.86-.47,1.17-.32.31-.69.46-1.11.46-.33,0-.63-.1-.9-.3-.27-.2-.49-.48-.65-.83l-2.18-5.21h-10.86l-2.14,5.24c-.12.35-.31.63-.58.82-.27.19-.57.28-.9.28-.49,0-.87-.13-1.12-.39-.26-.26-.39-.61-.39-1.06,0-.09.02-.28.07-.57l8.97-21.9c.16-.38.39-.67.69-.87.29-.2.63-.28,1-.23.35,0,.67.09.95.28s.48.46.6.81l8.93,21.61c.07.21.11.44.11.67ZM224.38,112.51h8.19l-4.11-9.92-4.08,9.92Z"/>
      <path class="cls-1" d="M255.92,104.31c1.29.82,2.3,1.96,3.04,3.42s1.11,3.12,1.11,4.96-.37,3.49-1.11,4.94c-.74,1.45-1.75,2.59-3.04,3.42-1.29.83-2.71,1.24-4.25,1.24-1.22,0-2.36-.27-3.41-.82s-1.91-1.2-2.57-1.98v7.87c0,.47-.16.87-.47,1.21-.32.33-.72.5-1.21.5s-.86-.16-1.18-.48-.47-.73-.47-1.22v-22.29c0-.5.15-.91.46-1.24.3-.33.7-.5,1.2-.5s.9.17,1.21.5c.32.33.47.74.47,1.24v1.03c.56-.83,1.38-1.54,2.46-2.13,1.08-.59,2.23-.89,3.45-.89,1.59,0,3.04.41,4.33,1.22ZM254.13,118.33c.87-.57,1.54-1.34,2.02-2.32.48-.98.72-2.08.72-3.31s-.24-2.33-.72-3.31-1.16-1.75-2.02-2.32c-.87-.57-1.84-.85-2.92-.85s-2.09.28-2.95.83c-.87.56-1.54,1.33-2.02,2.32-.48.99-.72,2.1-.72,3.33s.24,2.34.72,3.33c.48.99,1.15,1.77,2.02,2.32.87.56,1.85.83,2.95.83s2.05-.28,2.92-.85Z"/>
      <path class="cls-1" d="M277.51,104.31c1.29.82,2.3,1.96,3.04,3.42s1.11,3.12,1.11,4.96-.37,3.49-1.11,4.94c-.74,1.45-1.75,2.59-3.04,3.42-1.29.83-2.71,1.24-4.25,1.24-1.22,0-2.36-.27-3.41-.82s-1.91-1.2-2.57-1.98v7.87c0,.47-.16.87-.47,1.21-.32.33-.72.5-1.21.5s-.86-.16-1.18-.48-.47-.73-.47-1.22v-22.29c0-.5.15-.91.46-1.24.3-.33.7-.5,1.2-.5s.9.17,1.21.5.47.74.47,1.24v1.03c.56-.83,1.38-1.54,2.46-2.13,1.08-.59,2.23-.89,3.45-.89,1.59,0,3.03.41,4.32,1.22ZM275.72,118.33c.87-.57,1.54-1.34,2.02-2.32.48-.98.72-2.08.72-3.31s-.24-2.33-.72-3.31c-.48-.98-1.16-1.75-2.02-2.32s-1.84-.85-2.92-.85-2.09.28-2.95.83c-.87.56-1.54,1.33-2.02,2.32-.48.99-.72,2.1-.72,3.33s.24,2.34.72,3.33c.48.99,1.15,1.77,2.02,2.32.87.56,1.85.83,2.95.83s2.05-.28,2.92-.85Z"/>
      <path class="cls-1" d="M288.66,121.48c-.33.33-.73.5-1.2.5s-.86-.17-1.18-.5c-.32-.33-.47-.73-.47-1.2v-22.82c0-.47.16-.87.49-1.2s.73-.5,1.2-.5.86.17,1.18.5c.32.33.47.73.47,1.2v22.82c0,.47-.16.87-.49,1.2Z"/>
      <path class="cls-1" d="M294.44,100.52c-.29-.25-.44-.64-.44-1.19v-.57c0-.57.16-.97.47-1.2s.8-.35,1.46-.35,1.13.12,1.42.37c.29.25.44.64.44,1.19v.57c0,.57-.15.97-.46,1.2-.3.24-.78.35-1.44.35s-1.17-.12-1.46-.37ZM297.11,121.48c-.32.33-.72.5-1.21.5s-.86-.17-1.18-.5-.47-.73-.47-1.2v-15.34c0-.47.16-.87.47-1.2s.71-.5,1.18-.5.9.17,1.21.5c.32.33.47.73.47,1.2v15.34c0,.47-.16.87-.47,1.2Z"/>
      <path class="cls-1" d="M318.05,113.06c-.33.3-.72.44-1.16.44h-12.38c.16,1.72.81,3.11,1.95,4.15,1.14,1.04,2.53,1.56,4.17,1.56,1.12,0,2.04-.17,2.74-.5s1.32-.76,1.86-1.28c.35-.21.69-.32,1.02-.32.4,0,.73.14,1,.42.27.28.4.61.4.99,0,.5-.23.94-.7,1.35-.68.69-1.58,1.26-2.71,1.74-1.13.47-2.27.71-3.45.71-1.9,0-3.57-.4-5.01-1.21-1.44-.8-2.56-1.92-3.34-3.37-.79-1.44-1.18-3.07-1.18-4.89,0-1.98.4-3.73,1.21-5.23.81-1.5,1.88-2.65,3.2-3.46,1.32-.8,2.75-1.2,4.27-1.2s2.91.39,4.22,1.17c1.31.78,2.37,1.86,3.16,3.22.8,1.37,1.21,2.91,1.23,4.61-.02.43-.2.79-.53,1.08ZM306.55,107.22c-.96.74-1.59,1.9-1.9,3.45h10.37v-.28c-.12-1.25-.67-2.28-1.67-3.08-1-.8-2.13-1.2-3.39-1.2s-2.45.37-3.41,1.12Z"/>
      <path class="cls-1" d="M338.6,96.23c.32.32.47.73.47,1.22v22.82c0,.47-.16.87-.47,1.2-.32.33-.72.5-1.21.5s-.89-.16-1.2-.48c-.3-.32-.46-.73-.46-1.22v-.99c-.59.85-1.41,1.57-2.48,2.16s-2.21.89-3.43.89c-1.59,0-3.04-.41-4.32-1.24-1.29-.83-2.31-1.98-3.06-3.45-.75-1.48-1.13-3.14-1.13-4.98s.37-3.5,1.11-4.98c.74-1.48,1.75-2.63,3.04-3.45,1.29-.83,2.71-1.24,4.25-1.24,1.24,0,2.39.26,3.45.78,1.05.52,1.91,1.19,2.57,2.02v-8.33c0-.5.15-.9.46-1.22.31-.32.7-.48,1.2-.48s.9.16,1.21.48ZM333.15,118.36c.86-.57,1.52-1.35,2-2.34.48-.99.72-2.11.72-3.37s-.24-2.34-.72-3.35c-.48-1-1.15-1.79-2-2.36-.86-.57-1.84-.85-2.94-.85s-2.08.28-2.94.85c-.86.57-1.52,1.35-2,2.36-.48,1-.72,2.12-.72,3.35s.24,2.37.72,3.37,1.15,1.77,2,2.34,1.83.85,2.94.85,2.08-.28,2.94-.85Z"/>
      <path class="cls-1" d="M357.11,121.6c-1.31-.48-2.57-1.27-3.76-2.36-.49-.42-.74-.91-.74-1.45,0-.42.16-.81.49-1.15.33-.34.71-.51,1.16-.51.4,0,.74.13,1.02.39.94.87,1.9,1.52,2.9,1.93,1,.41,2.13.62,3.39.62,1.48,0,2.72-.34,3.74-1.03,1.02-.68,1.53-1.55,1.53-2.59-.02-1.23-.53-2.18-1.53-2.85-1-.67-2.51-1.23-4.55-1.68-2.41-.5-4.27-1.31-5.57-2.44-1.3-1.13-1.95-2.7-1.95-4.71,0-1.39.36-2.62,1.09-3.67.73-1.05,1.73-1.86,3.02-2.43s2.74-.85,4.36-.85c1.45,0,2.83.24,4.11.71,1.29.47,2.33,1.1,3.13,1.88.54.47.81.98.81,1.52,0,.42-.16.8-.47,1.13-.32.33-.7.5-1.14.5-.33,0-.6-.09-.81-.28-.61-.61-1.45-1.13-2.53-1.56-1.08-.43-2.11-.64-3.09-.64-1.57,0-2.82.32-3.74.97s-1.39,1.51-1.39,2.57c0,1.16.46,2.04,1.39,2.66.93.62,2.3,1.13,4.13,1.56,1.83.4,3.32.87,4.48,1.42,1.16.54,2.06,1.3,2.69,2.27.63.97.95,2.23.95,3.79,0,1.37-.38,2.59-1.14,3.65-.76,1.06-1.8,1.89-3.11,2.48-1.31.59-2.75.89-4.32.89-1.71,0-3.22-.24-4.54-.73Z"/>
      <path class="cls-1" d="M386.87,103.87c1.23.59,1.85,1.35,1.85,2.27,0,.4-.13.76-.39,1.08-.26.32-.59.48-.98.48-.31,0-.55-.05-.72-.14-.18-.09-.42-.25-.72-.46-.14-.14-.36-.31-.67-.5-.28-.14-.68-.26-1.2-.35-.52-.09-.99-.14-1.41-.14-1.22,0-2.3.28-3.23.85-.94.57-1.67,1.35-2.18,2.36-.52,1-.77,2.12-.77,3.35s.25,2.37.76,3.37c.5.99,1.21,1.77,2.13,2.34.91.57,1.96.85,3.13.85s2.2-.19,2.95-.57c.16-.09.39-.25.67-.46.23-.19.44-.33.62-.43.18-.09.39-.14.65-.14.47,0,.84.15,1.11.44.27.3.4.68.4,1.15s-.31.99-.93,1.47c-.62.48-1.45.88-2.5,1.19-1.04.31-2.16.46-3.36.46-1.78,0-3.35-.42-4.71-1.26-1.36-.84-2.41-2-3.15-3.47-.74-1.48-1.11-3.12-1.11-4.94s.39-3.47,1.16-4.94c.77-1.48,1.85-2.63,3.24-3.47s2.97-1.26,4.75-1.26,3.39.3,4.62.89Z"/>
      <path class="cls-1" d="M392.32,100.52c-.29-.25-.44-.64-.44-1.19v-.57c0-.57.16-.97.47-1.2s.8-.35,1.46-.35,1.13.12,1.42.37c.29.25.44.64.44,1.19v.57c0,.57-.15.97-.46,1.2-.3.24-.78.35-1.44.35s-1.17-.12-1.46-.37ZM395,121.48c-.32.33-.72.5-1.21.5s-.86-.17-1.18-.5-.47-.73-.47-1.2v-15.34c0-.47.16-.87.47-1.2s.71-.5,1.18-.5.9.17,1.21.5c.32.33.47.73.47,1.2v15.34c0,.47-.16.87-.47,1.2Z"/>
      <path class="cls-1" d="M415.93,113.06c-.33.3-.72.44-1.16.44h-12.38c.16,1.72.81,3.11,1.95,4.15,1.14,1.04,2.53,1.56,4.17,1.56,1.12,0,2.04-.17,2.74-.5s1.32-.76,1.86-1.28c.35-.21.69-.32,1.02-.32.4,0,.73.14,1,.42.27.28.4.61.4.99,0,.5-.23.94-.7,1.35-.68.69-1.58,1.26-2.71,1.74-1.13.47-2.27.71-3.45.71-1.9,0-3.57-.4-5.01-1.21-1.44-.8-2.56-1.92-3.34-3.37-.79-1.44-1.18-3.07-1.18-4.89,0-1.98.4-3.73,1.21-5.23.81-1.5,1.88-2.65,3.2-3.46,1.32-.8,2.75-1.2,4.27-1.2s2.91.39,4.22,1.17c1.31.78,2.37,1.86,3.16,3.22.8,1.37,1.21,2.91,1.23,4.61-.02.43-.2.79-.53,1.08ZM404.44,107.22c-.96.74-1.59,1.9-1.9,3.45h10.37v-.28c-.12-1.25-.67-2.28-1.67-3.08-1-.8-2.13-1.2-3.39-1.2s-2.45.37-3.41,1.12Z"/>
      <path class="cls-1" d="M436.04,110.64v9.64c0,.47-.16.87-.47,1.2s-.72.5-1.21.5-.86-.17-1.18-.5c-.32-.33-.47-.73-.47-1.2v-9.6c0-1.39-.32-2.5-.95-3.33-.63-.83-1.66-1.24-3.09-1.24-.94,0-1.79.21-2.55.62-.76.41-1.36.97-1.79,1.67-.43.7-.65,1.46-.65,2.28v9.6c0,.47-.16.87-.47,1.2s-.72.5-1.21.5-.89-.16-1.2-.48c-.31-.32-.46-.73-.46-1.22v-15.17c0-.47.16-.87.47-1.21.32-.33.71-.5,1.18-.5s.9.17,1.21.5c.32.33.47.73.47,1.21v1.24c.61-.94,1.46-1.74,2.55-2.39,1.09-.65,2.26-.97,3.5-.97,4.22,0,6.33,2.55,6.33,7.65Z"/>
      <path class="cls-1" d="M453.68,103.87c1.23.59,1.85,1.35,1.85,2.27,0,.4-.13.76-.39,1.08s-.59.48-.98.48c-.31,0-.55-.05-.72-.14-.18-.09-.42-.25-.72-.46-.14-.14-.36-.31-.67-.5-.28-.14-.68-.26-1.2-.35-.52-.09-.98-.14-1.41-.14-1.22,0-2.3.28-3.24.85-.94.57-1.66,1.35-2.18,2.36-.52,1-.77,2.12-.77,3.35s.25,2.37.76,3.37c.51.99,1.21,1.77,2.13,2.34.91.57,1.96.85,3.13.85s2.2-.19,2.95-.57c.16-.09.39-.25.67-.46.23-.19.44-.33.61-.43.18-.09.39-.14.65-.14.47,0,.84.15,1.11.44.27.3.4.68.4,1.15s-.31.99-.93,1.47c-.62.48-1.45.88-2.5,1.19-1.04.31-2.16.46-3.36.46-1.78,0-3.35-.42-4.71-1.26-1.36-.84-2.41-2-3.15-3.47-.74-1.48-1.11-3.12-1.11-4.94s.39-3.47,1.16-4.94c.77-1.48,1.85-2.63,3.23-3.47s2.96-1.26,4.75-1.26,3.39.3,4.62.89Z"/>
      <path class="cls-1" d="M474.75,113.06c-.33.3-.72.44-1.16.44h-12.38c.16,1.72.81,3.11,1.95,4.15,1.14,1.04,2.53,1.56,4.17,1.56,1.12,0,2.04-.17,2.74-.5s1.32-.76,1.86-1.28c.35-.21.69-.32,1.02-.32.4,0,.73.14,1,.42.27.28.4.61.4.99,0,.5-.23.94-.7,1.35-.68.69-1.58,1.26-2.71,1.74-1.13.47-2.27.71-3.45.71-1.9,0-3.57-.4-5.01-1.21-1.44-.8-2.56-1.92-3.34-3.37-.79-1.44-1.18-3.07-1.18-4.89,0-1.98.4-3.73,1.21-5.23.81-1.5,1.87-2.65,3.2-3.46,1.32-.8,2.75-1.2,4.27-1.2s2.91.39,4.22,1.17c1.31.78,2.37,1.86,3.16,3.22.8,1.37,1.21,2.91,1.23,4.61-.02.43-.2.79-.53,1.08ZM463.26,107.22c-.96.74-1.59,1.9-1.9,3.45h10.37v-.28c-.12-1.25-.67-2.28-1.67-3.08-1-.8-2.13-1.2-3.39-1.2s-2.45.37-3.41,1.12Z"/>
      <path class="cls-1" d="M477.78,118.11c0-.47.25-.87.74-1.21.23-.16.5-.25.81-.25.42,0,.81.18,1.16.53.7.8,1.46,1.41,2.27,1.81.81.4,1.78.6,2.9.6.89-.02,1.68-.23,2.36-.62.68-.39,1.02-1.02,1.02-1.9,0-.8-.35-1.42-1.04-1.84-.69-.43-1.71-.82-3.04-1.17-1.31-.35-2.4-.73-3.27-1.12-.87-.39-1.6-.96-2.2-1.7-.6-.74-.9-1.72-.9-2.92,0-1.06.3-2,.9-2.8.6-.8,1.39-1.43,2.39-1.88,1-.45,2.08-.67,3.25-.67s2.24.21,3.36.64c1.11.43,2.02,1.08,2.72,1.95.28.33.42.67.42,1.03,0,.38-.19.74-.56,1.1-.23.21-.53.32-.88.32-.42,0-.76-.14-1.02-.43-.49-.57-1.1-1-1.81-1.31-.72-.31-1.51-.46-2.37-.46s-1.65.18-2.27.55c-.62.37-.93.99-.93,1.86.02.83.38,1.44,1.07,1.84s1.75.79,3.18,1.17c1.24.33,2.27.69,3.09,1.06.82.38,1.51.94,2.07,1.68s.84,1.72.84,2.92c0,1.11-.32,2.07-.95,2.89-.63.82-1.46,1.44-2.48,1.88-1.02.44-2.1.66-3.25.66-1.48,0-2.84-.26-4.1-.78-1.25-.52-2.32-1.35-3.18-2.48-.21-.33-.32-.65-.32-.96Z"/>
    </g>
    <path class="cls-2" d="M216.34,11.05c16.15,0,29.29,13.14,29.29,29.29v40.5h11v-40.5C256.63,18.09,238.59.05,216.34.05h0c-22.25,0-40.29,18.04-40.29,40.29v40.5h11v-40.5c0-16.15,13.14-29.29,29.29-29.29"/>
    <path class="cls-2" d="M451.44.04c-10.79,0-20.93,4.2-28.55,11.83-7.63,7.63-11.83,17.77-11.83,28.55s4.2,20.93,11.83,28.55c7.63,7.63,17.77,11.83,28.55,11.83h25.4v-11h-25.4c-7.85,0-15.23-3.06-20.78-8.61-5.55-5.55-8.61-12.93-8.61-20.78s3.06-15.23,8.61-20.78c5.55-5.55,12.93-8.61,20.78-8.61h.16c16.15,0,29.29,13.14,29.29,29.29v40.5h11v-40.5C491.88,18.08,473.85.04,451.6.04h0"/>
  </g>
</svg>