<?xml version="1.0" encoding="UTF-8"?>
<svg id="Layer_2" data-name="Layer 2" xmlns="http://www.w3.org/2000/svg" viewBox="0 0 332.1 58.52">
  <defs>
    <style>
      .cls-1 {
        fill: #58585a;
      }

      .cls-1, .cls-2, .cls-3, .cls-4 {
        stroke-width: 0px;
      }

      .cls-2 {
        fill: #779346;
      }

      .cls-3 {
        fill: #d9640e;
      }

      .cls-4 {
        fill: #173883;
      }
    </style>
  </defs>
  <g id="Layer_1-2" data-name="Layer 1">
    <g>
      <path class="cls-2" d="M.56,0S-3.84,12.19,12.08,13.63c7.2.65,19.51-3.75,34.85,8.29,7.63,5.98,7.06,13.27,4.9,18.75-.14.94-.36,1.66-.72,2.45,1.94-3.39,4.1-8.08,5.11-13.05,2.59-12.55-3.24-27.18-40.46-26.9C5.09,3.46,1.06.07.56,0Z"/>
      <path class="cls-1" d="M298.18,39.43h-1.14v2.82h-1.64v.96h1.64v6.42c-.02,1.6.51,2.11,2.04,2.11.34,0,.67-.04,1.02-.04v-.98c-.33.04-.65.05-.98.05-.82-.05-.93-.49-.93-1.24v-6.32h1.91v-.96h-1.91v-2.82Z"/>
      <path class="cls-1" d="M286.86,51.63h1.15v-5.47c.04-1.84,1.13-3.22,2.94-3.22s2.38,1.22,2.38,2.84v5.85h1.14v-6.04c0-2.24-.8-3.62-3.44-3.62-1.33,0-2.58.76-3,1.89h-.04v-1.62h-1.15v9.38Z"/>
      <path class="cls-1" d="M278.39,46.28c.18-1.71,1.22-3.35,3.09-3.35s2.93,1.62,2.98,3.35h-6.07ZM285.6,47.25c.09-2.63-1.11-5.27-4.13-5.27s-4.23,2.49-4.23,4.96c0,2.67,1.25,4.96,4.23,4.96,2.36,0,3.6-1.24,4.09-3.36h-1.15c-.36,1.42-1.27,2.4-2.94,2.4-2.2,0-3.07-2.02-3.09-3.69h7.22Z"/>
      <path class="cls-1" d="M262.85,51.63h1.15v-5.24c.02-1.96.82-3.45,2.8-3.45,1.45,0,1.98,1.05,1.96,2.33v6.36h1.15v-5.31c0-1.74.56-3.38,2.54-3.38,1.64,0,2.22.84,2.22,2.38v6.31h1.14v-6.36c0-2.22-1.05-3.29-3.11-3.29-1.24,0-2.42.6-2.98,1.84-.34-1.24-1.45-1.84-2.69-1.84-1.49,0-2.47.73-3.07,1.85h-.05v-1.58h-1.06v9.38Z"/>
      <path class="cls-1" d="M253.34,51.63h1.15v-5.47c.04-1.84,1.13-3.22,2.94-3.22s2.38,1.22,2.38,2.84v5.85h1.15v-6.04c0-2.24-.8-3.62-3.44-3.62-1.33,0-2.58.76-3,1.89h-.04v-1.62h-1.15v9.38Z"/>
      <path class="cls-1" d="M247.49,42.94c2.2,0,3.29,2,3.29,4s-1.09,4-3.29,4-3.29-2-3.29-4,1.09-4,3.29-4M247.49,41.98c-2.87,0-4.44,2.27-4.44,4.96s1.56,4.96,4.44,4.96,4.43-2.27,4.43-4.96-1.56-4.96-4.43-4.96"/>
      <path class="cls-1" d="M238.4,51.63h1.14v-5c0-1.95,1.42-3.47,3.49-3.36v-1.15c-1.69-.07-2.96.82-3.54,2.33h-.04v-2.2h-1.05v9.38Z"/>
      <rect class="cls-1" x="235.33" y="38.65" width="1.14" height="1.84"/>
      <rect class="cls-1" x="235.33" y="42.25" width="1.14" height="9.38"/>
      <polygon class="cls-1" points="229.73 51.63 230.95 51.63 234.46 42.25 233.28 42.25 230.37 50.48 230.33 50.48 227.39 42.25 226.11 42.25 229.73 51.63"/>
      <path class="cls-1" d="M217.66,51.63h1.14v-5.47c.04-1.84,1.13-3.22,2.95-3.22s2.38,1.22,2.38,2.84v5.85h1.15v-6.04c0-2.24-.8-3.62-3.44-3.62-1.33,0-2.58.76-3,1.89h-.04v-1.62h-1.14v9.38Z"/>
      <polygon class="cls-1" points="207.39 51.63 216.44 51.63 216.44 50.57 208.63 50.57 208.63 45.45 215.86 45.45 215.86 44.39 208.63 44.39 208.63 39.7 216.35 39.7 216.35 38.65 207.39 38.65 207.39 51.63"/>
      <path class="cls-1" d="M193.91,46.28c.18-1.71,1.22-3.35,3.09-3.35s2.93,1.62,2.98,3.35h-6.07ZM201.12,47.25c.09-2.63-1.11-5.27-4.13-5.27s-4.24,2.49-4.24,4.96c0,2.67,1.25,4.96,4.24,4.96,2.36,0,3.6-1.24,4.09-3.36h-1.14c-.36,1.42-1.27,2.4-2.95,2.4-2.2,0-3.07-2.02-3.09-3.69h7.22Z"/>
      <path class="cls-1" d="M183.73,51.63h1.15v-5.47c.04-1.84,1.13-3.22,2.94-3.22s2.38,1.22,2.38,2.84v5.85h1.14v-6.04c0-2.24-.8-3.62-3.43-3.62-1.33,0-2.58.76-3,1.89h-.04v-5.22h-1.15v12.98Z"/>
      <path class="cls-1" d="M180.46,39.43h-1.15v2.82h-1.64v.96h1.64v6.42c-.02,1.6.51,2.11,2.04,2.11.35,0,.67-.04,1.02-.04v-.98c-.33.04-.66.05-.98.05-.82-.05-.93-.49-.93-1.24v-6.32h1.91v-.96h-1.91v-2.82Z"/>
      <path class="cls-1" d="M171.95,38.65h-1.15v5.38h-.04c-.49-1.35-1.85-2.05-3.25-2.05-2.85,0-4.22,2.31-4.22,4.96s1.36,4.96,4.22,4.96c1.36,0,2.85-.84,3.34-2.05h.04v1.78h1.05v-12.98ZM164.44,46.94c0-1.94.89-4,3.07-4,2.44,0,3.29,2.05,3.29,4s-.85,4-3.29,4c-2.18,0-3.07-2.05-3.07-4"/>
      <path class="cls-1" d="M154.19,51.63h1.14v-5.47c.04-1.84,1.13-3.22,2.95-3.22s2.38,1.22,2.38,2.84v5.85h1.14v-6.04c0-2.24-.8-3.62-3.44-3.62-1.33,0-2.58.76-3,1.89h-.04v-1.62h-1.14v9.38Z"/>
      <path class="cls-1" d="M146.09,45.12c.04-1.53,1.09-2.18,2.51-2.18,1.34,0,2.45.38,2.45,1.93,0,1.04-.53,1.16-1.47,1.27-2.47.29-5.04.38-5.04,3.02,0,1.89,1.42,2.74,3.14,2.74s2.62-.69,3.42-1.91h.04c0,.98.18,1.64,1.35,1.64.31,0,.49-.02.75-.07v-.96c-.09.04-.24.07-.36.07-.45,0-.67-.25-.67-.69v-4.98c0-2.51-1.8-3.02-3.45-3.02-2.15,0-3.69.95-3.8,3.14h1.15ZM151.05,47.99c.02,1.84-1.53,2.95-3.27,2.95-1.07,0-2.09-.71-2.09-1.85,0-1.84,2.42-1.82,4.36-2.16.31-.06.82-.15.96-.42h.04v1.49Z"/>
      <path class="cls-1" d="M136.98,39.43h-1.14v2.82h-1.64v.96h1.64v6.42c-.02,1.6.51,2.11,2.04,2.11.34,0,.67-.04,1.02-.04v-.98c-.33.04-.65.05-.98.05-.82-.05-.93-.49-.93-1.24v-6.32h1.91v-.96h-1.91v-2.82Z"/>
      <path class="cls-1" d="M129.71,51.63h1.15v-5c0-1.95,1.42-3.47,3.49-3.36v-1.15c-1.69-.07-2.96.82-3.54,2.33h-.04v-2.2h-1.05v9.38Z"/>
      <path class="cls-1" d="M123.84,42.94c2.2,0,3.29,2,3.29,4s-1.09,4-3.29,4-3.29-2-3.29-4,1.09-4,3.29-4M123.84,41.98c-2.87,0-4.43,2.27-4.43,4.96s1.56,4.96,4.43,4.96,4.44-2.27,4.44-4.96-1.56-4.96-4.44-4.96"/>
      <path class="cls-1" d="M109.72,55.1h1.14v-5.25h.04c.49,1.34,1.85,2.05,3.25,2.05,2.85,0,4.22-2.31,4.22-4.96s-1.36-4.96-4.22-4.96c-1.51,0-2.82.78-3.34,2.05h-.04v-1.78h-1.05v12.85ZM117.22,46.94c0,1.95-.89,4-3.07,4-2.44,0-3.29-2.05-3.29-4,0-2.13.76-4,3.29-4,2.18,0,3.07,2.05,3.07,4"/>
      <path class="cls-1" d="M108.01,44.99c-.07-2.04-1.56-3.02-3.44-3.02-1.65,0-3.53.73-3.53,2.64,0,1.6,1.13,2.11,2.62,2.51l1.47.33c1.04.26,2.05.62,2.05,1.71,0,1.31-1.49,1.78-2.56,1.78-1.53,0-2.67-.8-2.76-2.34h-1.15c.18,2.29,1.67,3.31,3.85,3.31,1.75,0,3.76-.78,3.76-2.82,0-1.64-1.36-2.4-2.67-2.6l-1.53-.35c-.78-.2-1.94-.56-1.94-1.58,0-1.22,1.2-1.62,2.22-1.62,1.31,0,2.4.64,2.45,2.05h1.15Z"/>
      <path class="cls-1" d="M91.74,51.63h1.14v-5.47c.04-1.84,1.13-3.22,2.94-3.22s2.38,1.22,2.38,2.84v5.85h1.15v-6.04c0-2.24-.8-3.62-3.44-3.62-1.33,0-2.58.76-3,1.89h-.04v-1.62h-1.14v9.38Z"/>
      <path class="cls-1" d="M83.63,45.12c.04-1.53,1.09-2.18,2.51-2.18,1.34,0,2.45.38,2.45,1.93,0,1.04-.53,1.16-1.47,1.27-2.47.29-5.04.38-5.04,3.02,0,1.89,1.42,2.74,3.15,2.74s2.62-.69,3.42-1.91h.04c0,.98.18,1.64,1.34,1.64.31,0,.49-.02.75-.07v-.96c-.09.04-.24.07-.36.07-.45,0-.67-.25-.67-.69v-4.98c0-2.51-1.8-3.02-3.45-3.02-2.15,0-3.69.95-3.8,3.14h1.15ZM88.6,47.99c.02,1.84-1.53,2.95-3.27,2.95-1.07,0-2.09-.71-2.09-1.85,0-1.84,2.42-1.82,4.36-2.16.31-.06.82-.15.96-.42h.04v1.49Z"/>
      <path class="cls-1" d="M77.15,51.63h1.15v-5c0-1.95,1.42-3.47,3.49-3.36v-1.15c-1.69-.07-2.96.82-3.54,2.33h-.04v-2.2h-1.05v9.38Z"/>
      <polygon class="cls-1" points="67.8 39.7 72.33 39.7 72.33 51.63 73.56 51.63 73.56 39.7 78.09 39.7 78.09 38.65 67.8 38.65 67.8 39.7"/>
      <path class="cls-1" d="M330.57,31.52v1.93h.76c.04.6-.24,1.49-.84,1.71v.78c1.09-.31,1.58-1.42,1.6-2.47v-1.95h-1.53Z"/>
      <path class="cls-1" d="M326.61,21.26h-1.14v2.82h-1.64v.96h1.64v6.42c-.02,1.6.51,2.11,2.04,2.11.35,0,.67-.04,1.02-.04v-.98c-.33.04-.66.05-.98.05-.82-.05-.93-.49-.93-1.24v-6.32h1.91v-.96h-1.91v-2.82Z"/>
      <path class="cls-1" d="M315.29,33.45h1.15v-5.47c.04-1.84,1.13-3.22,2.94-3.22s2.38,1.22,2.38,2.84v5.85h1.14v-6.04c0-2.23-.8-3.62-3.43-3.62-1.33,0-2.58.76-3,1.89h-.04v-1.62h-1.15v9.38Z"/>
      <path class="cls-1" d="M306.82,28.11c.18-1.71,1.22-3.34,3.09-3.34s2.93,1.62,2.98,3.34h-6.07ZM314.03,29.07c.09-2.63-1.11-5.27-4.13-5.27s-4.24,2.49-4.24,4.96c0,2.67,1.26,4.96,4.24,4.96,2.36,0,3.6-1.24,4.09-3.36h-1.14c-.36,1.42-1.27,2.4-2.95,2.4-2.2,0-3.07-2.02-3.09-3.69h7.21Z"/>
      <path class="cls-1" d="M291.28,33.45h1.14v-5.24c.02-1.96.82-3.45,2.8-3.45,1.45,0,1.98,1.05,1.96,2.33v6.36h1.14v-5.31c0-1.75.56-3.38,2.54-3.38,1.64,0,2.22.84,2.22,2.38v6.31h1.14v-6.36c0-2.22-1.05-3.29-3.11-3.29-1.24,0-2.42.6-2.98,1.84-.35-1.24-1.45-1.84-2.69-1.84-1.49,0-2.47.73-3.07,1.85h-.06v-1.58h-1.05v9.38Z"/>
      <path class="cls-1" d="M281.12,36.92h1.15v-5.25h.04c.49,1.35,1.85,2.05,3.25,2.05,2.85,0,4.22-2.31,4.22-4.96s-1.36-4.96-4.22-4.96c-1.51,0-2.82.78-3.35,2.05h-.04v-1.78h-1.05v12.85ZM288.62,28.76c0,1.94-.89,4-3.07,4-2.44,0-3.29-2.05-3.29-4,0-2.13.76-4,3.29-4,2.18,0,3.07,2.05,3.07,4"/>
      <path class="cls-1" d="M275.24,24.76c2.2,0,3.29,2,3.29,4s-1.09,4-3.29,4-3.29-2-3.29-4,1.09-4,3.29-4M275.24,23.8c-2.87,0-4.43,2.27-4.43,4.96s1.56,4.96,4.43,4.96,4.44-2.27,4.44-4.96-1.56-4.96-4.44-4.96"/>
      <rect class="cls-1" x="268.21" y="20.47" width="1.14" height="12.98"/>
      <path class="cls-1" d="M259.7,28.11c.18-1.71,1.22-3.34,3.09-3.34s2.93,1.62,2.98,3.34h-6.07ZM266.92,29.07c.09-2.63-1.11-5.27-4.13-5.27s-4.23,2.49-4.23,4.96c0,2.67,1.25,4.96,4.23,4.96,2.36,0,3.6-1.24,4.09-3.36h-1.15c-.36,1.42-1.27,2.4-2.95,2.4-2.2,0-3.07-2.02-3.09-3.69h7.22Z"/>
      <polygon class="cls-1" points="253.45 33.45 254.67 33.45 258.18 24.07 257 24.07 254.09 32.31 254.05 32.31 251.11 24.07 249.83 24.07 253.45 33.45"/>
      <path class="cls-1" d="M242.4,28.11c.18-1.71,1.22-3.34,3.09-3.34s2.93,1.62,2.98,3.34h-6.07ZM249.62,29.07c.09-2.63-1.11-5.27-4.13-5.27s-4.23,2.49-4.23,4.96c0,2.67,1.25,4.96,4.23,4.96,2.36,0,3.6-1.24,4.09-3.36h-1.14c-.36,1.42-1.27,2.4-2.94,2.4-2.2,0-3.07-2.02-3.09-3.69h7.22Z"/>
      <path class="cls-1" d="M229.77,33.45h4.49c3.91-.09,5.96-2.24,5.96-6.49s-2.05-6.4-5.96-6.49h-4.49v12.98ZM231,21.53h2.64c3.73-.02,5.34,1.56,5.34,5.44s-1.62,5.45-5.34,5.44h-2.64v-10.87Z"/>
      <path class="cls-1" d="M223.37,27.02c-.25-2.14-1.8-3.22-3.8-3.22-2.87,0-4.43,2.27-4.43,4.96s1.56,4.96,4.43,4.96c2.09,0,3.56-1.38,3.87-3.64h-1.14c-.15,1.56-1.31,2.67-2.73,2.67-2.2,0-3.29-2-3.29-4s1.09-4,3.29-4c1.49,0,2.34.85,2.65,2.25h1.14Z"/>
      <rect class="cls-1" x="212.54" y="20.47" width="1.15" height="1.84"/>
      <rect class="cls-1" x="212.54" y="24.07" width="1.15" height="9.38"/>
      <path class="cls-1" d="M197.65,33.45h1.15v-5.24c.02-1.96.82-3.45,2.8-3.45,1.45,0,1.98,1.05,1.96,2.33v6.36h1.14v-5.31c0-1.75.56-3.38,2.54-3.38,1.64,0,2.22.84,2.22,2.38v6.31h1.14v-6.36c0-2.22-1.05-3.29-3.11-3.29-1.24,0-2.42.6-2.98,1.84-.34-1.24-1.45-1.84-2.69-1.84-1.49,0-2.47.73-3.07,1.85h-.05v-1.58h-1.05v9.38Z"/>
      <path class="cls-1" d="M191.78,24.76c2.2,0,3.29,2,3.29,4s-1.09,4-3.29,4-3.29-2-3.29-4,1.09-4,3.29-4M191.78,23.8c-2.87,0-4.43,2.27-4.43,4.96s1.56,4.96,4.43,4.96,4.44-2.27,4.44-4.96-1.56-4.96-4.44-4.96"/>
      <path class="cls-1" d="M178.31,33.45h1.14v-5.47c.04-1.84,1.13-3.22,2.95-3.22s2.38,1.22,2.38,2.84v5.85h1.15v-6.04c0-2.23-.8-3.62-3.44-3.62-1.33,0-2.58.76-3,1.89h-.04v-1.62h-1.14v9.38Z"/>
      <path class="cls-1" d="M172.46,24.76c2.2,0,3.29,2,3.29,4s-1.09,4-3.29,4-3.29-2-3.29-4,1.09-4,3.29-4M172.46,23.8c-2.87,0-4.43,2.27-4.43,4.96s1.56,4.96,4.43,4.96,4.44-2.27,4.44-4.96-1.56-4.96-4.44-4.96"/>
      <path class="cls-1" d="M167.1,27.02c-.25-2.14-1.8-3.22-3.8-3.22-2.87,0-4.44,2.27-4.44,4.96s1.56,4.96,4.44,4.96c2.09,0,3.56-1.38,3.87-3.64h-1.15c-.14,1.56-1.31,2.67-2.73,2.67-2.2,0-3.29-2-3.29-4s1.09-4,3.29-4c1.49,0,2.34.85,2.65,2.25h1.15Z"/>
      <polygon class="cls-1" points="149.05 33.45 158.1 33.45 158.1 32.4 150.28 32.4 150.28 27.27 157.52 27.27 157.52 26.22 150.28 26.22 150.28 21.53 158.01 21.53 158.01 20.47 149.05 20.47 149.05 33.45"/>
      <path class="cls-1" d="M138.6,33.45h1.14v-5c0-1.95,1.42-3.47,3.49-3.36v-1.14c-1.69-.07-2.96.82-3.54,2.33h-.04v-2.2h-1.05v9.38Z"/>
      <path class="cls-1" d="M132.73,24.76c2.2,0,3.29,2,3.29,4s-1.09,4-3.29,4-3.29-2-3.29-4,1.09-4,3.29-4M132.73,23.8c-2.87,0-4.44,2.27-4.44,4.96s1.56,4.96,4.44,4.96,4.43-2.27,4.43-4.96-1.56-4.96-4.43-4.96"/>
      <path class="cls-1" d="M127.95,24.07h-1.85v-.82c.02-1.02-.02-1.82,1.25-1.82.27,0,.53.04.84.09v-.98c-.36-.06-.64-.07-.96-.07-1.84,0-2.29,1.13-2.27,2.74v.85h-1.6v.96h1.6v8.42h1.15v-8.42h1.85v-.96Z"/>
      <path class="cls-1" d="M111.06,28.11c.18-1.71,1.22-3.34,3.09-3.34s2.93,1.62,2.98,3.34h-6.07ZM118.28,29.07c.09-2.63-1.11-5.27-4.13-5.27s-4.23,2.49-4.23,4.96c0,2.67,1.25,4.96,4.23,4.96,2.36,0,3.6-1.24,4.09-3.36h-1.14c-.36,1.42-1.27,2.4-2.94,2.4-2.2,0-3.07-2.02-3.09-3.69h7.22Z"/>
      <path class="cls-1" d="M105.26,33.45h1.14v-5c0-1.95,1.42-3.47,3.49-3.36v-1.14c-1.69-.07-2.96.82-3.54,2.33h-.04v-2.2h-1.05v9.38Z"/>
      <path class="cls-1" d="M101.97,21.26h-1.15v2.82h-1.64v.96h1.64v6.42c-.02,1.6.51,2.11,2.04,2.11.35,0,.67-.04,1.02-.04v-.98c-.33.04-.65.05-.98.05-.82-.05-.93-.49-.93-1.24v-6.32h1.91v-.96h-1.91v-2.82Z"/>
      <path class="cls-1" d="M90.65,33.45h1.15v-5.47c.04-1.84,1.13-3.22,2.94-3.22s2.38,1.22,2.38,2.84v5.85h1.15v-6.04c0-2.23-.8-3.62-3.44-3.62-1.33,0-2.58.76-3,1.89h-.04v-1.62h-1.15v9.38Z"/>
      <path class="cls-1" d="M82.18,28.11c.18-1.71,1.22-3.34,3.09-3.34s2.93,1.62,2.98,3.34h-6.07ZM89.4,29.07c.09-2.63-1.11-5.27-4.13-5.27s-4.23,2.49-4.23,4.96c0,2.67,1.25,4.96,4.23,4.96,2.36,0,3.6-1.24,4.09-3.36h-1.15c-.36,1.42-1.27,2.4-2.94,2.4-2.2,0-3.07-2.02-3.09-3.69h7.22Z"/>
      <path class="cls-1" d="M79.93,24.4c-.33-2.73-2.76-4.2-5.22-4.2-4.09,0-6.12,3.22-6.12,6.76s2.04,6.76,6.12,6.76c3.04,0,5.05-2.04,5.4-5.22h-1.24c-.24,2.31-1.76,4.16-4.16,4.16-3.44,0-4.89-2.87-4.89-5.71s1.45-5.71,4.89-5.71c1.89,0,3.54,1.15,3.98,3.14h1.24Z"/>
      <path class="cls-4" d="M18.7,24.37h0s-8.86,38.14,16.92,29.71c1.3-.07,6.77-2.09,6.77-2.09-2.38,1.37-5.4,2.74-8.64,4.04C19.2,61.65-.02,61.43,10.78,15.07l7.92,9.3Z"/>
      <path class="cls-3" d="M18.7,24.37c2.66-.43,8.06-1.08,14.26-.29,8.71,1.08,19.01,5.19,19.08,15.14-.22,2.88-1.01,4.4-2.81,7-.43.58-.94,1.3-1.51,1.95,0-.22,0-.29.07-.87.22-1.59.5-4.69-1.08-7.72-1.94-3.97-8.71-6.49-19.22-6.27-2.16-2.31-5.33-5.41-8.78-8.94Z"/>
      <path class="cls-4" d="M27.48,33.31h0s1.08,17.95,20.23,14.78c.07,0-1.8,1.73-4.68,3.53-2.95,1.8-7.13,3.24-11.16,1.95-12.46-3.82-4.39-20.26-4.39-20.26Z"/>
    </g>
  </g>
</svg>