<?xml version="1.0" encoding="UTF-8"?>
<svg id="Layer_2" data-name="Layer 2" xmlns="http://www.w3.org/2000/svg" viewBox="0 0 227.8 58.52">
  <defs>
    <style>
      .cls-1 {
        fill: #58585a;
      }

      .cls-1, .cls-2, .cls-3, .cls-4 {
        stroke-width: 0px;
      }

      .cls-2 {
        fill: #d9640c;
      }

      .cls-3 {
        fill: #779346;
      }

      .cls-4 {
        fill: #003883;
      }
    </style>
  </defs>
  <g id="Layer_1-2" data-name="Layer 1">
    <g>
      <path class="cls-3" d="M.56,0S-3.84,12.19,12.08,13.63c7.2.65,19.51-3.75,34.85,8.29,7.63,5.99,7.06,13.27,4.9,18.75-.14.94-.36,1.66-.72,2.45,1.94-3.39,4.1-8.08,5.11-13.05,2.59-12.55-3.24-27.18-40.46-26.9C5.09,3.46,1.06.07.56,0Z"/>
      <path class="cls-1" d="M193.14,44.89c-.07-2.04-1.56-3.02-3.44-3.02-1.65,0-3.53.73-3.53,2.63,0,1.6,1.13,2.11,2.62,2.51l1.47.33c1.04.25,2.05.62,2.05,1.71,0,1.31-1.49,1.78-2.56,1.78-1.53,0-2.67-.8-2.76-2.35h-1.14c.18,2.29,1.67,3.31,3.85,3.31,1.75,0,3.76-.78,3.76-2.82,0-1.64-1.36-2.4-2.67-2.6l-1.53-.35c-.78-.2-1.95-.56-1.95-1.58,0-1.22,1.2-1.62,2.22-1.62,1.31,0,2.4.64,2.45,2.05h1.15Z"/>
      <path class="cls-1" d="M184.49,42.15h-1.15v4.93c0,1.91-.85,3.76-2.82,3.76-1.82,0-2.45-.89-2.51-2.58v-6.11h-1.15v6.09c0,2.18.93,3.56,3.29,3.56,1.4,0,2.64-.71,3.24-1.96h.04v1.69h1.05v-9.38Z"/>
      <polygon class="cls-1" points="168.07 51.52 169.22 51.52 169.22 47.96 171.07 46.42 174.78 51.52 176.22 51.52 171.94 45.62 175.94 42.15 174.42 42.15 169.22 46.69 169.22 38.55 168.07 38.55 168.07 51.52"/>
      <path class="cls-1" d="M166.36,44.89c-.07-2.04-1.56-3.02-3.43-3.02-1.65,0-3.53.73-3.53,2.63,0,1.6,1.13,2.11,2.62,2.51l1.47.33c1.04.25,2.05.62,2.05,1.71,0,1.31-1.49,1.78-2.56,1.78-1.53,0-2.67-.8-2.76-2.35h-1.15c.18,2.29,1.67,3.31,3.85,3.31,1.74,0,3.76-.78,3.76-2.82,0-1.64-1.36-2.4-2.67-2.6l-1.53-.35c-.78-.2-1.95-.56-1.95-1.58,0-1.22,1.2-1.62,2.22-1.62,1.31,0,2.4.64,2.45,2.05h1.14Z"/>
      <path class="cls-1" d="M151.11,46.18c.18-1.71,1.22-3.35,3.09-3.35s2.93,1.62,2.98,3.35h-6.07ZM158.33,47.15c.09-2.64-1.11-5.27-4.13-5.27s-4.23,2.49-4.23,4.96c0,2.67,1.25,4.96,4.23,4.96,2.36,0,3.6-1.24,4.09-3.36h-1.14c-.36,1.42-1.27,2.4-2.94,2.4-2.2,0-3.07-2.02-3.09-3.69h7.22Z"/>
      <polygon class="cls-1" points="141.63 51.52 142.77 51.52 142.77 47.96 144.63 46.42 148.33 51.52 149.77 51.52 145.5 45.62 149.5 42.15 147.97 42.15 142.77 46.69 142.77 38.55 141.63 38.55 141.63 51.52"/>
      <rect class="cls-1" x="133.54" y="38.69" width="1.24" height="1.84"/>
      <rect class="cls-1" x="136.76" y="38.69" width="1.24" height="1.84"/>
      <path class="cls-1" d="M135.76,42.84c2.2,0,3.29,2,3.29,4s-1.09,4-3.29,4-3.29-2-3.29-4,1.09-4,3.29-4M135.76,41.87c-2.87,0-4.43,2.27-4.43,4.96s1.56,4.96,4.43,4.96,4.44-2.27,4.44-4.96-1.56-4.96-4.44-4.96"/>
      <path class="cls-1" d="M128.5,39.33h-1.14v2.82h-1.64v.96h1.64v6.42c-.02,1.6.51,2.11,2.04,2.11.35,0,.67-.04,1.02-.04v-.98c-.33.04-.65.05-.98.05-.82-.05-.93-.49-.93-1.24v-6.32h1.91v-.96h-1.91v-2.82Z"/>
      <path class="cls-1" d="M124.98,44.89c-.07-2.04-1.56-3.02-3.44-3.02-1.65,0-3.53.73-3.53,2.63,0,1.6,1.13,2.11,2.62,2.51l1.47.33c1.04.25,2.05.62,2.05,1.71,0,1.31-1.49,1.78-2.56,1.78-1.53,0-2.67-.8-2.76-2.35h-1.14c.18,2.29,1.67,3.31,3.85,3.31,1.74,0,3.76-.78,3.76-2.82,0-1.64-1.36-2.4-2.67-2.6l-1.53-.35c-.78-.2-1.95-.56-1.95-1.58,0-1.22,1.2-1.62,2.22-1.62,1.31,0,2.4.64,2.45,2.05h1.15Z"/>
      <rect class="cls-1" x="115.15" y="38.55" width="1.14" height="1.84"/>
      <rect class="cls-1" x="115.15" y="42.15" width="1.14" height="9.38"/>
      <path class="cls-1" d="M109.67,51.52h1.15v-5c0-1.95,1.42-3.47,3.49-3.36v-1.14c-1.69-.07-2.96.82-3.54,2.33h-.04v-2.2h-1.05v9.38Z"/>
      <rect class="cls-1" x="101.91" y="38.69" width="1.24" height="1.84"/>
      <rect class="cls-1" x="105.13" y="38.69" width="1.24" height="1.84"/>
      <path class="cls-1" d="M101.55,45.02c.04-1.53,1.09-2.18,2.51-2.18,1.34,0,2.45.38,2.45,1.93,0,1.04-.53,1.16-1.47,1.27-2.47.29-5.03.38-5.03,3.02,0,1.89,1.42,2.74,3.14,2.74s2.62-.69,3.42-1.91h.04c0,.98.18,1.63,1.34,1.63.31,0,.49-.02.75-.07v-.96c-.09.04-.24.07-.36.07-.46,0-.67-.25-.67-.69v-4.98c0-2.51-1.8-3.02-3.45-3.02-2.15,0-3.69.95-3.8,3.14h1.15ZM106.51,47.89c.02,1.84-1.53,2.95-3.27,2.95-1.07,0-2.09-.71-2.09-1.85,0-1.84,2.42-1.82,4.36-2.16.31-.05.82-.14.96-.42h.04v1.49Z"/>
      <path class="cls-1" d="M90.35,55h1.15v-5.25h.04c.49,1.35,1.85,2.05,3.25,2.05,2.85,0,4.22-2.31,4.22-4.96s-1.36-4.96-4.22-4.96c-1.51,0-2.82.78-3.34,2.05h-.04v-1.78h-1.05v12.85ZM97.86,46.84c0,1.95-.89,4-3.07,4-2.44,0-3.29-2.05-3.29-4,0-2.13.76-4,3.29-4,2.18,0,3.07,2.05,3.07,4"/>
      <path class="cls-1" d="M75.48,51.52h1.14v-5.23c.02-1.96.82-3.45,2.8-3.45,1.46,0,1.98,1.05,1.96,2.33v6.36h1.15v-5.31c0-1.74.56-3.38,2.55-3.38,1.63,0,2.22.84,2.22,2.38v6.31h1.14v-6.36c0-2.22-1.05-3.29-3.11-3.29-1.24,0-2.42.6-2.98,1.84-.34-1.24-1.45-1.84-2.69-1.84-1.49,0-2.47.73-3.07,1.85h-.06v-1.58h-1.05v9.38Z"/>
      <path class="cls-1" d="M70.03,51.49l-.4,1.07c-.38.87-.62,1.47-1.64,1.47-.25,0-.51-.04-.78-.09v.96c.18.07.42.07.87.09,1.44,0,1.82-.45,2.47-2.04l4.07-10.81h-1.15l-2.89,8-3.09-8h-1.22l3.74,9.34Z"/>
      <path class="cls-1" d="M220.66,26.84c.04-1.53,1.09-2.18,2.51-2.18s2.45.38,2.45,1.93c0,1.04-.53,1.16-1.47,1.27-2.47.29-5.04.38-5.04,3.02,0,1.89,1.42,2.74,3.14,2.74s2.62-.69,3.42-1.91h.04c0,.98.18,1.63,1.35,1.63.31,0,.49-.02.75-.07v-.96c-.09.04-.24.07-.36.07-.46,0-.67-.25-.67-.69v-4.98c0-2.51-1.8-3.02-3.45-3.02-2.15,0-3.69.95-3.8,3.15h1.14ZM225.62,29.71c.02,1.84-1.53,2.94-3.27,2.94-1.07,0-2.09-.71-2.09-1.85,0-1.83,2.42-1.82,4.36-2.16.31-.05.82-.15.96-.42h.04v1.49Z"/>
      <rect class="cls-1" x="216.55" y="20.37" width="1.14" height="1.84"/>
      <path class="cls-1" d="M216.55,34.49c0,.78-.15,1.36-1.04,1.36-.18.02-.44,0-.62-.02v.95c.27,0,.53.04.8.04,1.62,0,2-1.2,2-2.6v-10.25h-1.14v10.52Z"/>
      <rect class="cls-1" x="205.3" y="27.82" width="4.54" height="1.05"/>
      <path class="cls-1" d="M196.81,28.01c.18-1.71,1.22-3.34,3.09-3.34s2.93,1.62,2.98,3.34h-6.07ZM204.02,28.97c.09-2.64-1.11-5.27-4.13-5.27s-4.24,2.49-4.24,4.96c0,2.67,1.25,4.96,4.24,4.96,2.36,0,3.6-1.24,4.09-3.36h-1.14c-.36,1.42-1.27,2.4-2.95,2.4-2.2,0-3.07-2.02-3.09-3.69h7.22Z"/>
      <path class="cls-1" d="M186.63,33.35h1.14v-5.47c.04-1.84,1.13-3.22,2.94-3.22s2.38,1.22,2.38,2.84v5.85h1.14v-6.03c0-2.23-.8-3.62-3.43-3.62-1.33,0-2.58.76-3,1.89h-.04v-1.62h-1.14v9.38Z"/>
      <path class="cls-1" d="M177.14,33.35h1.14v-5.47c.04-1.84,1.13-3.22,2.94-3.22s2.38,1.22,2.38,2.84v5.85h1.15v-6.03c0-2.23-.8-3.62-3.44-3.62-1.33,0-2.58.76-3,1.89h-.04v-1.62h-1.14v9.38Z"/>
      <path class="cls-1" d="M168.67,28.01c.18-1.71,1.22-3.34,3.09-3.34s2.93,1.62,2.98,3.34h-6.07ZM175.89,28.97c.09-2.64-1.11-5.27-4.13-5.27s-4.24,2.49-4.24,4.96c0,2.67,1.25,4.96,4.24,4.96,2.36,0,3.6-1.24,4.09-3.36h-1.15c-.36,1.42-1.27,2.4-2.94,2.4-2.2,0-3.07-2.02-3.09-3.69h7.22Z"/>
      <polygon class="cls-1" points="159.19 33.35 160.33 33.35 160.33 29.79 162.18 28.24 165.89 33.35 167.33 33.35 163.06 27.44 167.06 23.97 165.53 23.97 160.33 28.51 160.33 20.37 159.19 20.37 159.19 33.35"/>
      <rect class="cls-1" x="156.11" y="20.37" width="1.15" height="1.84"/>
      <rect class="cls-1" x="156.11" y="23.97" width="1.15" height="9.38"/>
      <rect class="cls-1" x="153.02" y="20.37" width="1.14" height="1.84"/>
      <rect class="cls-1" x="153.02" y="23.97" width="1.14" height="9.38"/>
      <rect class="cls-1" x="149.93" y="20.37" width="1.14" height="12.98"/>
      <path class="cls-1" d="M141.03,31.42v1.93h.76c.04.6-.24,1.49-.84,1.71v.78c1.09-.31,1.58-1.42,1.6-2.47v-1.94h-1.53Z"/>
      <rect class="cls-1" x="133.9" y="27.82" width="4.54" height="1.05"/>
      <path class="cls-1" d="M128.03,24.66c2.2,0,3.29,2,3.29,4s-1.09,4-3.29,4-3.29-2-3.29-4,1.09-4,3.29-4M128.03,23.7c-2.87,0-4.43,2.27-4.43,4.96s1.56,4.96,4.43,4.96,4.44-2.27,4.44-4.96-1.56-4.96-4.44-4.96"/>
      <path class="cls-1" d="M114.56,33.35h1.14v-5.47c.04-1.84,1.13-3.22,2.95-3.22s2.38,1.22,2.38,2.84v5.85h1.15v-6.03c0-2.23-.8-3.62-3.44-3.62-1.33,0-2.58.76-3,1.89h-.04v-1.62h-1.14v9.38Z"/>
      <rect class="cls-1" x="111.51" y="20.37" width="1.14" height="1.84"/>
      <rect class="cls-1" x="111.51" y="23.97" width="1.14" height="9.38"/>
      <path class="cls-1" d="M103,28.01c.18-1.71,1.22-3.34,3.09-3.34s2.93,1.62,2.98,3.34h-6.07ZM110.22,28.97c.09-2.64-1.11-5.27-4.13-5.27s-4.24,2.49-4.24,4.96c0,2.67,1.25,4.96,4.24,4.96,2.36,0,3.6-1.24,4.09-3.36h-1.15c-.36,1.42-1.27,2.4-2.94,2.4-2.2,0-3.07-2.02-3.09-3.69h7.22Z"/>
      <polygon class="cls-1" points="93.52 33.35 94.66 33.35 94.66 29.79 96.51 28.24 100.22 33.35 101.66 33.35 97.39 27.44 101.39 23.97 99.86 23.97 94.66 28.51 94.66 20.37 93.52 20.37 93.52 33.35"/>
      <path class="cls-1" d="M84.01,33.35h1.15v-5.47c.04-1.84,1.13-3.22,2.95-3.22s2.38,1.22,2.38,2.84v5.85h1.15v-6.03c0-2.23-.8-3.62-3.44-3.62-1.33,0-2.58.76-3,1.89h-.04v-1.62h-1.15v9.38Z"/>
      <rect class="cls-1" x="80.96" y="20.37" width="1.15" height="1.84"/>
      <rect class="cls-1" x="80.96" y="23.97" width="1.15" height="9.38"/>
      <rect class="cls-1" x="77.87" y="20.37" width="1.14" height="12.98"/>
      <polygon class="cls-1" points="67.56 33.35 76.61 33.35 76.61 32.3 68.8 32.3 68.8 27.17 76.03 27.17 76.03 26.12 68.8 26.12 68.8 21.43 76.52 21.43 76.52 20.37 67.56 20.37 67.56 33.35"/>
      <path class="cls-4" d="M18.7,24.37h0s-8.86,38.14,16.92,29.71c1.3-.07,6.77-2.09,6.77-2.09-2.38,1.37-5.4,2.74-8.64,4.04C19.2,61.65-.02,61.43,10.78,15.07l7.92,9.3Z"/>
      <path class="cls-2" d="M18.7,24.37c2.66-.43,8.06-1.08,14.26-.29,8.71,1.08,19.01,5.19,19.08,15.14-.22,2.88-1.01,4.4-2.81,7-.43.58-.94,1.3-1.51,1.95,0-.22,0-.29.07-.87.22-1.59.5-4.69-1.08-7.72-1.94-3.97-8.71-6.49-19.22-6.27-2.16-2.31-5.33-5.41-8.78-8.94Z"/>
      <path class="cls-4" d="M27.48,33.31h0s1.08,17.95,20.23,14.78c.07,0-1.8,1.73-4.68,3.53-2.95,1.8-7.13,3.24-11.16,1.95-12.46-3.82-4.39-20.26-4.39-20.26Z"/>
    </g>
  </g>
</svg>