<?xml version="1.0" encoding="UTF-8"?>
<svg id="Layer_2" data-name="Layer 2" xmlns="http://www.w3.org/2000/svg" viewBox="0 0 197.77 184.02">
  <defs>
    <style>
      .cls-1 {
        fill: #fc0;
      }

      .cls-1, .cls-2, .cls-3 {
        stroke-width: 0px;
      }

      .cls-2 {
        fill: #039;
      }

      .cls-3 {
        fill: #fff;
      }
    </style>
  </defs>
  <g id="Layer_1-2" data-name="Layer 1">
    <g>
      <rect class="cls-3" x="7.31" width="183.15" height="124.41"/>
      <rect class="cls-2" x="10.83" y="3.41" width="176.11" height="117.41"/>
      <g>
        <polygon class="cls-1" points="95.13 28.99 98.85 26.28 102.56 28.99 101.15 24.61 104.92 21.89 100.27 21.89 98.85 17.45 97.42 21.9 92.77 21.89 96.54 24.61 95.13 28.99"/>
        <polygon class="cls-1" points="75.9 34.16 79.62 31.45 83.33 34.16 81.92 29.77 85.69 27.06 81.04 27.06 79.61 22.62 78.19 27.07 73.54 27.06 77.31 29.77 75.9 34.16"/>
        <polygon class="cls-1" points="65.54 36.72 64.12 41.17 59.47 41.16 63.24 43.87 61.83 48.26 65.54 45.55 69.26 48.26 67.85 43.87 71.62 41.16 66.97 41.16 65.54 36.72"/>
        <polygon class="cls-1" points="60.38 64.75 64.1 67.47 62.69 63.08 66.46 60.37 61.81 60.37 60.38 55.93 58.96 60.38 54.31 60.37 58.08 63.08 56.67 67.47 60.38 64.75"/>
        <polygon class="cls-1" points="66.97 79.63 65.54 75.19 64.12 79.64 59.47 79.63 63.24 82.35 61.83 86.73 65.54 84.01 69.26 86.73 67.85 82.35 71.62 79.63 66.97 79.63"/>
        <polygon class="cls-1" points="81.07 93.73 79.64 89.29 78.22 93.74 73.57 93.73 77.34 96.44 75.93 100.83 79.65 98.12 83.36 100.83 81.95 96.44 85.72 93.73 81.07 93.73"/>
        <polygon class="cls-1" points="100.27 98.84 98.85 94.4 97.43 98.84 92.78 98.84 96.55 101.55 95.14 105.94 98.85 103.23 102.56 105.94 101.15 101.55 104.93 98.84 100.27 98.84"/>
        <polygon class="cls-1" points="119.48 93.73 118.06 89.29 116.63 93.74 111.98 93.73 115.75 96.44 114.34 100.83 118.06 98.12 121.77 100.83 120.36 96.44 124.13 93.73 119.48 93.73"/>
        <polygon class="cls-1" points="133.58 79.63 132.16 75.19 130.73 79.64 126.08 79.63 129.86 82.35 128.44 86.73 132.16 84.01 135.87 86.73 134.45 82.35 138.23 79.63 133.58 79.63"/>
        <polygon class="cls-1" points="143.34 60.32 138.69 60.32 137.26 55.87 135.84 60.32 131.19 60.32 134.96 63.03 133.55 67.41 137.26 64.7 140.97 67.41 139.56 63.03 143.34 60.32"/>
        <polygon class="cls-1" points="128.44 48.2 132.16 45.49 135.87 48.2 134.45 43.82 138.23 41.11 133.58 41.11 132.16 36.67 130.73 41.11 126.08 41.11 129.86 43.82 128.44 48.2"/>
        <polygon class="cls-1" points="118.11 22.62 116.69 27.07 112.04 27.06 115.81 29.78 114.39 34.16 118.12 31.45 121.83 34.16 120.42 29.78 124.19 27.06 119.53 27.06 118.11 22.62"/>
      </g>
    </g>
    <g>
      <path class="cls-2" d="M40.01,149.15l2.94.93c-.45,1.64-1.2,2.86-2.25,3.66-1.05.8-2.38,1.19-3.99,1.19-2,0-3.64-.68-4.92-2.04-1.29-1.36-1.93-3.23-1.93-5.59,0-2.5.65-4.45,1.94-5.83,1.29-1.38,2.99-2.08,5.1-2.08,1.84,0,3.33.54,4.48,1.63.68.64,1.2,1.57,1.54,2.77l-3,.72c-.18-.78-.55-1.39-1.11-1.85-.56-.45-1.25-.68-2.06-.68-1.11,0-2.02.4-2.71,1.2-.69.8-1.04,2.09-1.04,3.89,0,1.9.34,3.25,1.03,4.06s1.57,1.21,2.67,1.21c.81,0,1.5-.26,2.08-.77.58-.51,1-1.32,1.25-2.42Z"/>
      <path class="cls-2" d="M44.87,149.08c0-.96.24-1.88.71-2.78s1.14-1.58,2-2.05c.86-.47,1.83-.71,2.9-.71,1.65,0,3,.54,4.05,1.6,1.05,1.07,1.58,2.42,1.58,4.06s-.53,3.01-1.59,4.1c-1.06,1.08-2.4,1.62-4.01,1.62-1,0-1.95-.23-2.86-.68s-1.59-1.11-2.07-1.98c-.47-.87-.71-1.93-.71-3.18ZM47.82,149.23c0,1.08.26,1.91.77,2.48s1.15.86,1.9.86,1.38-.29,1.89-.86.76-1.41.76-2.5-.25-1.89-.76-2.46-1.14-.86-1.89-.86-1.38.29-1.9.86-.77,1.4-.77,2.48Z"/>
      <path class="cls-2" d="M58.03,150.67v-2.88h5.66v2.88h-5.66Z"/>
      <path class="cls-2" d="M64.09,143.79h1.6v-.82c0-.92.1-1.6.29-2.05.2-.45.55-.82,1.08-1.1.52-.28,1.18-.43,1.98-.43s1.62.12,2.41.37l-.39,2.01c-.46-.11-.9-.16-1.32-.16s-.72.1-.9.29c-.18.19-.27.57-.27,1.12v.77h2.15v2.27h-2.15v8.62h-2.88v-8.62h-1.6v-2.27Z"/>
      <path class="cls-2" d="M79.51,154.68v-1.63c-.4.58-.92,1.04-1.56,1.38-.65.33-1.33.5-2.05.5s-1.39-.16-1.97-.48c-.58-.32-1-.77-1.26-1.35-.26-.58-.39-1.38-.39-2.41v-6.89h2.88v5c0,1.53.05,2.47.16,2.81.11.35.3.62.58.82.28.2.64.3,1.07.3.49,0,.93-.13,1.32-.41.39-.27.66-.6.8-1,.14-.4.22-1.38.22-2.94v-4.59h2.88v10.89h-2.68Z"/>
      <path class="cls-2" d="M95.08,154.68h-2.88v-5.56c0-1.18-.06-1.94-.18-2.28-.12-.35-.32-.61-.6-.81-.28-.19-.61-.29-1-.29-.5,0-.95.14-1.34.41-.4.27-.67.64-.82,1.09-.15.45-.22,1.29-.22,2.5v4.93h-2.88v-10.89h2.68v1.6c.95-1.23,2.15-1.85,3.59-1.85.64,0,1.22.11,1.74.34.53.23.92.52,1.19.88.27.36.46.76.56,1.21.11.45.16,1.1.16,1.94v6.77Z"/>
      <path class="cls-2" d="M107.99,154.68h-2.68v-1.6c-.44.62-.97,1.08-1.57,1.39-.6.3-1.21.46-1.83.46-1.25,0-2.32-.5-3.21-1.51-.89-1.01-1.34-2.42-1.34-4.22s.43-3.25,1.3-4.21c.87-.96,1.96-1.44,3.29-1.44,1.22,0,2.27.51,3.16,1.52v-5.41h2.88v15.03ZM100.3,149c0,1.16.16,2,.48,2.52.46.75,1.11,1.13,1.95,1.13.66,0,1.23-.28,1.69-.85.46-.56.7-1.41.7-2.53,0-1.25-.22-2.15-.68-2.7-.45-.55-1.03-.83-1.73-.83s-1.26.27-1.72.82c-.46.54-.69,1.36-.69,2.44Z"/>
      <path class="cls-2" d="M117.14,151.21l2.87.48c-.37,1.05-.95,1.85-1.75,2.41-.8.55-1.79.83-2.99.83-1.89,0-3.29-.62-4.2-1.86-.72-.99-1.08-2.24-1.08-3.75,0-1.8.47-3.22,1.42-4.24.94-1.02,2.14-1.53,3.58-1.53,1.62,0,2.9.54,3.83,1.6.94,1.07,1.38,2.71,1.34,4.92h-7.22c.02.85.25,1.52.7,1.99.44.48,1,.71,1.66.71.45,0,.83-.12,1.14-.37s.54-.64.7-1.19ZM117.3,148.3c-.02-.83-.24-1.47-.65-1.9-.41-.43-.91-.65-1.5-.65-.63,0-1.15.23-1.56.69s-.61,1.08-.6,1.87h4.31Z"/>
      <path class="cls-2" d="M132.5,154.68h-2.68v-1.6c-.44.62-.97,1.08-1.57,1.39-.6.3-1.21.46-1.83.46-1.25,0-2.32-.5-3.21-1.51-.89-1.01-1.34-2.42-1.34-4.22s.43-3.25,1.3-4.21c.87-.96,1.96-1.44,3.29-1.44,1.22,0,2.27.51,3.16,1.52v-5.41h2.88v15.03ZM124.81,149c0,1.16.16,2,.48,2.52.46.75,1.11,1.13,1.95,1.13.66,0,1.23-.28,1.69-.85.46-.56.7-1.41.7-2.53,0-1.25-.22-2.15-.68-2.7-.45-.55-1.03-.83-1.73-.83s-1.26.27-1.72.82c-.46.54-.69,1.36-.69,2.44Z"/>
      <path class="cls-2" d="M141.05,154.68v-15.03h2.88v5.41c.89-1.01,1.94-1.52,3.16-1.52,1.33,0,2.42.48,3.29,1.44.87.96,1.3,2.34,1.3,4.14s-.44,3.29-1.33,4.3c-.88,1.01-1.96,1.51-3.22,1.51-.62,0-1.24-.16-1.84-.47-.6-.31-1.13-.77-1.56-1.38v1.6h-2.68ZM143.91,149c0,1.13.18,1.96.53,2.5.5.77,1.16,1.15,1.99,1.15.64,0,1.18-.27,1.62-.82.45-.54.67-1.4.67-2.57,0-1.24-.23-2.14-.68-2.69-.45-.55-1.03-.83-1.73-.83s-1.26.27-1.72.81c-.46.54-.69,1.35-.69,2.45Z"/>
      <path class="cls-2" d="M152.63,143.79h3.07l2.61,7.73,2.54-7.73h2.98l-3.84,10.48-.69,1.9c-.25.64-.49,1.12-.72,1.46-.23.33-.49.61-.79.81-.3.21-.66.37-1.1.49-.43.12-.92.17-1.47.17s-1.1-.06-1.63-.17l-.26-2.26c.45.09.86.13,1.22.13.67,0,1.17-.2,1.49-.59.32-.39.57-.89.74-1.5l-4.14-10.92Z"/>
      <path class="cls-2" d="M6.18,168.99v2.3h-1.97v4.39c0,.89.02,1.41.06,1.55.04.15.12.27.26.36.13.1.3.14.49.14.27,0,.65-.09,1.16-.28l.25,2.24c-.67.29-1.43.43-2.28.43-.52,0-.99-.09-1.4-.26-.42-.17-.72-.4-.92-.68-.19-.28-.33-.65-.4-1.12-.06-.33-.09-1.01-.09-2.03v-4.75H0v-2.3h1.32v-2.16l2.89-1.68v3.84h1.97Z"/>
      <path class="cls-2" d="M11.05,164.85v5.53c.93-1.09,2.04-1.63,3.33-1.63.66,0,1.26.12,1.79.37s.93.56,1.2.94.45.81.55,1.27.15,1.19.15,2.16v6.39h-2.88v-5.75c0-1.14-.05-1.87-.16-2.17-.11-.31-.3-.55-.58-.73-.28-.18-.62-.27-1.04-.27-.48,0-.91.12-1.28.35s-.65.58-.83,1.05c-.17.47-.26,1.16-.26,2.08v5.46h-2.88v-15.03h2.88Z"/>
      <path class="cls-2" d="M27.32,176.41l2.87.48c-.37,1.05-.95,1.85-1.75,2.41-.8.55-1.79.83-2.99.83-1.89,0-3.29-.62-4.2-1.86-.72-.99-1.08-2.24-1.08-3.75,0-1.8.47-3.22,1.42-4.24.94-1.02,2.14-1.53,3.58-1.53,1.62,0,2.9.54,3.83,1.6.94,1.07,1.38,2.71,1.34,4.92h-7.22c.02.85.25,1.52.7,1.99.44.48,1,.71,1.66.71.45,0,.83-.12,1.14-.37s.54-.64.7-1.19ZM27.48,173.5c-.02-.83-.24-1.47-.65-1.9-.41-.43-.91-.65-1.5-.65-.63,0-1.15.23-1.56.69s-.61,1.08-.6,1.87h4.31Z"/>
      <path class="cls-2" d="M38.54,179.88v-15.03h11.15v2.54h-8.11v3.33h7.55v2.53h-7.55v4.09h8.4v2.53h-11.43Z"/>
      <path class="cls-2" d="M59.7,179.88v-1.63c-.4.58-.92,1.04-1.56,1.38-.65.33-1.33.5-2.05.5s-1.39-.16-1.97-.48c-.58-.32-1-.77-1.26-1.35-.26-.58-.39-1.38-.39-2.41v-6.89h2.88v5c0,1.53.05,2.47.16,2.81.11.35.3.62.58.82.28.2.64.3,1.07.3.49,0,.93-.13,1.32-.41.39-.27.66-.6.8-1,.14-.4.22-1.38.22-2.94v-4.59h2.88v10.89h-2.68Z"/>
      <path class="cls-2" d="M68.12,179.88h-2.88v-10.89h2.68v1.55c.46-.73.87-1.21,1.24-1.45.37-.23.78-.35,1.25-.35.66,0,1.29.18,1.9.54l-.89,2.51c-.49-.31-.94-.47-1.35-.47s-.75.11-1.03.33c-.28.22-.5.62-.66,1.21-.16.58-.24,1.8-.24,3.65v3.36Z"/>
      <path class="cls-2" d="M72.86,174.28c0-.96.24-1.88.71-2.78.47-.9,1.14-1.58,2-2.05.87-.47,1.83-.71,2.9-.71,1.65,0,3,.54,4.05,1.6,1.05,1.07,1.58,2.42,1.58,4.06s-.53,3.01-1.59,4.1c-1.06,1.08-2.4,1.62-4.01,1.62-1,0-1.95-.23-2.86-.68-.91-.45-1.59-1.11-2.07-1.98-.47-.87-.71-1.93-.71-3.18ZM75.82,174.43c0,1.08.26,1.91.77,2.48.51.57,1.15.86,1.9.86s1.38-.29,1.89-.86c.51-.57.76-1.41.76-2.5s-.25-1.89-.76-2.46c-.51-.57-1.14-.86-1.89-.86s-1.38.29-1.9.86c-.51.57-.77,1.4-.77,2.48Z"/>
      <path class="cls-2" d="M86.28,168.99h2.69v1.6c.35-.55.82-.99,1.42-1.33.59-.34,1.25-.51,1.98-.51,1.26,0,2.34.5,3.22,1.49s1.32,2.37,1.32,4.14-.45,3.23-1.33,4.24c-.89,1.01-1.96,1.51-3.23,1.51-.6,0-1.15-.12-1.64-.36-.49-.24-1-.65-1.54-1.23v5.49h-2.88v-15.03ZM89.13,174.25c0,1.22.24,2.13.73,2.71.49.58,1.08.88,1.77.88s1.23-.27,1.67-.8c.44-.54.67-1.42.67-2.64,0-1.14-.23-1.99-.69-2.54-.46-.55-1.03-.83-1.7-.83s-1.29.27-1.75.82c-.46.54-.7,1.35-.7,2.42Z"/>
      <path class="cls-2" d="M105.49,176.41l2.87.48c-.37,1.05-.95,1.85-1.75,2.41-.8.55-1.79.83-2.99.83-1.89,0-3.29-.62-4.2-1.86-.72-.99-1.08-2.24-1.08-3.75,0-1.8.47-3.22,1.42-4.24.94-1.02,2.14-1.53,3.58-1.53,1.62,0,2.9.54,3.83,1.6.94,1.07,1.38,2.71,1.34,4.92h-7.22c.02.85.25,1.52.7,1.99.44.48,1,.71,1.66.71.45,0,.83-.12,1.14-.37s.54-.64.7-1.19ZM105.66,173.5c-.02-.83-.24-1.47-.65-1.9-.41-.43-.91-.65-1.5-.65-.63,0-1.15.23-1.56.69s-.61,1.08-.6,1.87h4.31Z"/>
      <path class="cls-2" d="M113.02,172.31l-2.61-.47c.29-1.05.8-1.83,1.52-2.34s1.78-.76,3.2-.76c1.29,0,2.24.15,2.87.46.63.3,1.07.69,1.33,1.16.26.47.38,1.33.38,2.58l-.03,3.36c0,.96.05,1.66.14,2.12.09.45.26.94.52,1.46h-2.85c-.08-.19-.17-.47-.28-.85-.05-.17-.08-.28-.1-.34-.49.48-1.02.84-1.58,1.08-.56.24-1.16.36-1.79.36-1.12,0-2-.3-2.65-.91-.65-.61-.97-1.38-.97-2.31,0-.62.15-1.16.44-1.65.29-.48.71-.85,1.24-1.11.53-.26,1.29-.48,2.29-.67,1.35-.25,2.28-.49,2.8-.71v-.29c0-.55-.14-.95-.41-1.18-.27-.24-.79-.35-1.55-.35-.51,0-.91.1-1.2.3-.29.2-.52.56-.7,1.06ZM116.87,174.65c-.37.12-.95.27-1.75.44-.8.17-1.32.34-1.57.5-.38.27-.56.6-.56,1.01s.15.75.45,1.05.68.44,1.15.44c.52,0,1.01-.17,1.49-.51.35-.26.58-.58.69-.95.08-.25.11-.71.11-1.41v-.57Z"/>
      <path class="cls-2" d="M132.45,179.88h-2.88v-5.56c0-1.18-.06-1.94-.18-2.28-.12-.35-.32-.61-.6-.81-.28-.19-.61-.29-1-.29-.5,0-.95.14-1.34.41-.4.27-.67.64-.82,1.09-.15.45-.22,1.29-.22,2.5v4.93h-2.88v-10.89h2.68v1.6c.95-1.23,2.15-1.85,3.59-1.85.64,0,1.22.11,1.74.34.53.23.92.52,1.19.88.27.36.46.76.56,1.21.11.45.16,1.1.16,1.94v6.77Z"/>
      <path class="cls-2" d="M141.21,164.85h3.04v8.14c0,1.29.04,2.13.11,2.51.13.62.44,1.11.93,1.48.49.37,1.16.56,2,.56s1.51-.18,1.95-.53c.44-.35.7-.78.79-1.3.09-.51.13-1.36.13-2.55v-8.32h3.04v7.9c0,1.8-.08,3.08-.25,3.82-.16.75-.47,1.38-.91,1.89-.44.51-1.03.92-1.77,1.23-.74.3-1.7.46-2.89.46-1.44,0-2.52-.17-3.27-.5-.74-.33-1.33-.76-1.76-1.29-.43-.53-.71-1.08-.85-1.67-.2-.86-.3-2.13-.3-3.81v-8.02Z"/>
      <path class="cls-2" d="M166.28,179.88h-2.88v-5.56c0-1.18-.06-1.94-.18-2.28-.12-.35-.32-.61-.6-.81-.28-.19-.61-.29-1-.29-.5,0-.95.14-1.34.41-.4.27-.67.64-.82,1.09-.15.45-.22,1.29-.22,2.5v4.93h-2.88v-10.89h2.68v1.6c.95-1.23,2.15-1.85,3.59-1.85.64,0,1.22.11,1.74.34.53.23.92.52,1.19.88.27.36.46.76.56,1.21.11.45.16,1.1.16,1.94v6.77Z"/>
      <path class="cls-2" d="M169.2,167.51v-2.67h2.88v2.67h-2.88ZM169.2,179.88v-10.89h2.88v10.89h-2.88Z"/>
      <path class="cls-2" d="M174.37,174.28c0-.96.24-1.88.71-2.78.47-.9,1.14-1.58,2-2.05.87-.47,1.83-.71,2.9-.71,1.65,0,3,.54,4.05,1.6,1.05,1.07,1.58,2.42,1.58,4.06s-.53,3.01-1.59,4.1c-1.06,1.08-2.4,1.62-4.01,1.62-1,0-1.95-.23-2.86-.68-.91-.45-1.59-1.11-2.07-1.98-.47-.87-.71-1.93-.71-3.18ZM177.32,174.43c0,1.08.26,1.91.77,2.48.51.57,1.15.86,1.9.86s1.38-.29,1.89-.86c.51-.57.76-1.41.76-2.5s-.25-1.89-.76-2.46c-.51-.57-1.14-.86-1.89-.86s-1.38.29-1.9.86c-.51.57-.77,1.4-.77,2.48Z"/>
      <path class="cls-2" d="M197.77,179.88h-2.88v-5.56c0-1.18-.06-1.94-.18-2.28-.12-.35-.32-.61-.6-.81-.28-.19-.61-.29-1-.29-.5,0-.95.14-1.34.41-.4.27-.67.64-.82,1.09-.15.45-.22,1.29-.22,2.5v4.93h-2.88v-10.89h2.68v1.6c.95-1.23,2.15-1.85,3.59-1.85.64,0,1.22.11,1.74.34.53.23.92.52,1.19.88.27.36.46.76.56,1.21.11.45.16,1.1.16,1.94v6.77Z"/>
    </g>
  </g>
</svg>