<?xml version="1.0" encoding="UTF-8"?>
<svg id="Layer_2" data-name="Layer 2" xmlns="http://www.w3.org/2000/svg" viewBox="0 0 185.47 187.45">
  <defs>
    <style>
      .cls-1 {
        fill: #fc0;
      }

      .cls-1, .cls-2, .cls-3 {
        stroke-width: 0px;
      }

      .cls-2, .cls-4 {
        fill: #039;
      }

      .cls-4 {
        font-family: Arial-BoldMT, Arial;
        font-size: 21px;
        font-weight: 700;
      }

      .cls-3 {
        fill: #fff;
      }
    </style>
  </defs>
  <g id="Layer_1-2" data-name="Layer 1">
    <g>
      <rect class="cls-3" x="1.16" width="183.15" height="124.41"/>
      <rect class="cls-2" x="4.68" y="3.41" width="176.11" height="117.41"/>
      <g>
        <polygon class="cls-1" points="88.98 28.99 92.7 26.28 96.42 28.99 95 24.61 98.78 21.89 94.12 21.89 92.7 17.45 91.28 21.9 86.63 21.89 90.4 24.61 88.98 28.99"/>
        <polygon class="cls-1" points="69.75 34.16 73.47 31.45 77.18 34.16 75.77 29.77 79.54 27.06 74.89 27.06 73.47 22.62 72.04 27.07 67.39 27.06 71.17 29.77 69.75 34.16"/>
        <polygon class="cls-1" points="59.4 36.72 57.97 41.17 53.32 41.16 57.1 43.87 55.68 48.26 59.4 45.55 63.11 48.26 61.7 43.87 65.47 41.16 60.82 41.16 59.4 36.72"/>
        <polygon class="cls-1" points="54.24 64.75 57.95 67.47 56.54 63.08 60.31 60.37 55.66 60.37 54.24 55.93 52.81 60.38 48.16 60.37 51.93 63.08 50.52 67.47 54.24 64.75"/>
        <polygon class="cls-1" points="60.82 79.63 59.4 75.19 57.97 79.64 53.32 79.63 57.1 82.35 55.68 86.73 59.4 84.01 63.11 86.73 61.7 82.35 65.47 79.63 60.82 79.63"/>
        <polygon class="cls-1" points="74.92 93.73 73.5 89.29 72.07 93.74 67.42 93.73 71.19 96.44 69.78 100.83 73.5 98.12 77.21 100.83 75.8 96.44 79.57 93.73 74.92 93.73"/>
        <polygon class="cls-1" points="94.13 98.84 92.7 94.4 91.28 98.84 86.63 98.84 90.4 101.55 88.99 105.94 92.7 103.23 96.42 105.94 95 101.55 98.78 98.84 94.13 98.84"/>
        <polygon class="cls-1" points="113.33 93.73 111.91 89.29 110.48 93.74 105.84 93.73 109.61 96.44 108.19 100.83 111.91 98.12 115.63 100.83 114.21 96.44 117.98 93.73 113.33 93.73"/>
        <polygon class="cls-1" points="127.44 79.63 126.01 75.19 124.58 79.64 119.94 79.63 123.71 82.35 122.29 86.73 126.01 84.01 129.72 86.73 128.31 82.35 132.08 79.63 127.44 79.63"/>
        <polygon class="cls-1" points="137.19 60.32 132.54 60.32 131.11 55.87 129.69 60.32 125.04 60.32 128.81 63.03 127.4 67.41 131.11 64.7 134.83 67.41 133.42 63.03 137.19 60.32"/>
        <polygon class="cls-1" points="122.29 48.2 126.01 45.49 129.72 48.2 128.31 43.82 132.08 41.11 127.44 41.11 126.01 36.67 124.58 41.11 119.94 41.11 123.71 43.82 122.29 48.2"/>
        <polygon class="cls-1" points="111.96 22.62 110.54 27.07 105.89 27.06 109.66 29.78 108.25 34.16 111.97 31.45 115.68 34.16 114.27 29.78 118.04 27.06 113.39 27.06 111.96 22.62"/>
      </g>
    </g>
    <text class="cls-4" transform="translate(0 154.34)"><tspan x="0" y="0">Euroopan unionin </tspan><tspan x="20.96" y="25.2">osarahoittama</tspan></text>
  </g>
</svg>