<?xml version="1.0" encoding="UTF-8"?>
<svg id="Layer_2" data-name="Layer 2" xmlns="http://www.w3.org/2000/svg" viewBox="0 0 140.81 140.81">
  <defs>
    <style>
      .cls-1 {
        fill: #20222b;
      }

      .cls-1, .cls-2 {
        stroke-width: 0px;
      }

      .cls-2 {
        fill: #f0efef;
      }
    </style>
  </defs>
  <g id="Layer_1-2" data-name="Layer 1">
    <g>
      <path class="cls-2" d="M6.07,19.46c2.8,9.92,4.93,19.98,6.54,30.14.75,5.09,1.21,10.22,2.05,15.29,1.61,10.15,4.46,20.08,6.38,30.17,3.15,15.11,5.66,30.31,7.11,45.7l-.28.05c-4.06-14.92-7.08-30.02-9.46-45.27-1.76-10.12-2.59-20.41-4.66-30.48-2.23-10.03-4.83-19.99-6.15-30.21-.75-5.09-1.43-10.18-1.82-15.33l.28-.05h0Z"/>
      <path class="cls-2" d="M32.79,14.6c2.8,9.92,4.93,19.98,6.54,30.14.75,5.09,1.21,10.22,2.05,15.29,1.61,10.15,4.46,20.08,6.38,30.17,3.15,15.11,5.66,30.31,7.11,45.7l-.28.05c-4.06-14.92-7.08-30.02-9.46-45.27-1.76-10.12-2.59-20.41-4.66-30.48-2.22-10.03-4.83-19.99-6.15-30.21-.75-5.09-1.43-10.18-1.82-15.33l.28-.05h0Z"/>
      <path class="cls-2" d="M59.5,9.73c2.8,9.92,4.93,19.98,6.54,30.14.75,5.09,1.21,10.22,2.05,15.29,1.61,10.15,4.46,20.08,6.38,30.17,3.15,15.11,5.66,30.31,7.11,45.7l-.28.05c-4.06-14.92-7.08-30.02-9.46-45.27-1.76-10.12-2.59-20.41-4.66-30.48-2.22-10.03-4.83-19.99-6.15-30.21-.75-5.09-1.43-10.18-1.82-15.33l.28-.05h0Z"/>
      <path class="cls-2" d="M86.21,4.87c2.8,9.92,4.93,19.98,6.54,30.14.75,5.09,1.21,10.22,2.05,15.29,1.61,10.15,4.46,20.08,6.38,30.17,3.15,15.11,5.66,30.31,7.11,45.7,0,0-.28.05-.28.05-4.06-14.92-7.08-30.02-9.46-45.27-1.76-10.12-2.59-20.41-4.66-30.48-2.22-10.03-4.83-19.99-6.15-30.21-.75-5.09-1.43-10.18-1.82-15.33l.28-.05h0Z"/>
      <path class="cls-2" d="M112.93,0c2.8,9.92,4.93,19.98,6.54,30.14.75,5.09,1.21,10.22,2.05,15.29,1.61,10.15,4.46,20.08,6.38,30.17,3.15,15.11,5.66,30.31,7.11,45.7l-.28.05c-4.06-14.92-7.08-30.02-9.46-45.27-1.76-10.12-2.59-20.41-4.66-30.48-2.22-10.03-4.83-19.99-6.15-30.21-.75-5.09-1.43-10.18-1.82-15.33l.28-.05h0Z"/>
      <path class="cls-2" d="M19.46,134.74c9.92-2.8,19.98-4.93,30.14-6.54,5.09-.75,10.22-1.21,15.29-2.05,10.15-1.61,20.08-4.46,30.17-6.38,15.11-3.15,30.31-5.66,45.7-7.11,0,0,.05.28.05.28-14.92,4.06-30.02,7.08-45.27,9.46-10.12,1.76-20.41,2.59-30.48,4.66-10.03,2.22-19.99,4.83-30.21,6.15-5.09.75-10.18,1.43-15.33,1.82l-.05-.28h0Z"/>
      <path class="cls-2" d="M14.6,108.03c9.92-2.8,19.98-4.93,30.14-6.54,5.09-.75,10.22-1.21,15.29-2.05,10.15-1.61,20.08-4.46,30.17-6.38,15.11-3.15,30.31-5.66,45.7-7.11,0,0,.05.28.05.28-14.92,4.06-30.02,7.08-45.27,9.46-10.12,1.76-20.41,2.59-30.48,4.66-10.03,2.22-19.99,4.83-30.21,6.15-5.09.75-10.18,1.43-15.33,1.82l-.05-.28h0Z"/>
      <path class="cls-2" d="M9.73,81.31c9.92-2.8,19.98-4.93,30.14-6.54,5.09-.75,10.22-1.21,15.29-2.05,10.15-1.61,20.08-4.46,30.17-6.38,15.11-3.15,30.31-5.66,45.7-7.11,0,0,.05.28.05.28-14.92,4.06-30.02,7.08-45.27,9.46-10.12,1.76-20.41,2.59-30.48,4.66-10.03,2.22-19.99,4.83-30.21,6.15-5.09.75-10.18,1.43-15.33,1.82l-.05-.28h0Z"/>
      <path class="cls-2" d="M4.87,54.6c9.92-2.8,19.98-4.93,30.14-6.54,5.09-.75,10.22-1.21,15.29-2.05,10.15-1.61,20.08-4.46,30.17-6.38,15.11-3.15,30.31-5.66,45.7-7.11,0,0,.05.28.05.28-14.92,4.06-30.02,7.08-45.27,9.46-10.12,1.76-20.41,2.59-30.48,4.66-10.03,2.22-19.99,4.83-30.21,6.15-5.09.75-10.18,1.43-15.33,1.82l-.05-.28h0Z"/>
      <path class="cls-2" d="M0,27.89c9.92-2.8,19.98-4.93,30.14-6.54,5.09-.75,10.22-1.21,15.29-2.05,10.15-1.61,20.08-4.46,30.17-6.38,15.11-3.15,30.31-5.66,45.7-7.11,0,0,.05.28.05.28-14.92,4.06-30.02,7.08-45.27,9.46-10.12,1.76-20.41,2.59-30.48,4.66-10.03,2.22-19.99,4.83-30.21,6.15-5.09.75-10.18,1.43-15.33,1.82l-.05-.28h0Z"/>
    </g>
    <g>
      <path class="cls-1" d="M133.68,88.37c-.1.26-.57.51-.88.64-3.43,1.39-7.38,1.31-10.72,3.33-.36.21-.79.46-1.18.49-1,.11-1.38-1.16-.57-1.74,1.1-.79,2.57-.67,3.83-1.06,2.64-.66,5.3-1.28,7.95-1.89.39-.08,1.6-.36,1.58.2v.03Z"/>
      <path class="cls-1" d="M97.32,95.67c.49.29,1.13.5,1.34.55,3.21.72,6.48,1.25,9.75,1.81.86.14,1.81.36,2.44.98.68.57-.04,1.76-.79,1.58-.86-.28-1.21-1.46-2-1.84-.95-.52-6.73-.98-8.65-1.18-.68-.06-3.02-.73-3.02-.73,0,0,1.16,3.36,1.51,4.79.44,1.39-.12,3.41-1.95,3.38-1.39-.03-1.94-2.15-1.99-2.5-.41-3.03-2.31-9.38-2.31-9.38,0,0-4.89.16-6.38.3,1.26,1.7,2.95,5.8,4.26,8.35.29.57,1.22,2.83.53,4.06-.29.51-.76.57-1.24.47-.89-.14-1.8-.2-2.07-1.14-.32-1.13-.36-2.33-.88-3.39-.72-1.51-2.67-5.95-3.89-7.94-3.14.23-9.57,3.23-9.57,3.23,0,0-.58,1.3-.28,2.99.24,1.65,1.8,4.64,1.37,5.87-.32.92-2.06,1.06-2.36.05-.24-.76,1.04-1.61.46-3.76-.5-2.25-.53-4.44.18-6.61.31-.9.62-1.73.62-1.73,0,0-8.7,2.2-9.21,2.32.77,5.38,4.44,9.87,2.82,10.37-5.16,1.59-6.38-9.49-6.38-9.49l-5.37,1.24s-.64,5.04-.85,6.97c-.26,2.29,1,.54,1.78.01.37-.21.17.68.09.93-.29,1.06-2.65,2.94-3.2,3.08-.92.22-1.81-.65-1.84-1.55.05-2.39.83-8.74.83-8.74,0,0-.89.03-1.16-.13-.31-.2-.25-.57.05-.79.44-.37,1.33-.7,1.33-.7,0,0,.23-2.62.43-3.71.3-2.45.5-4.92.76-7.38.03-.91.53-1.91,1.39-2.24.92-.24,1.04,1.12,1.04,1.78-.1,3.18-.31,6.37-.46,9.55,0,.52-.14,1.72-.14,1.72l5.33-1.07s-.43-7.72,2.48-13.07c.68-1.25,2.55-1.28,2.44,0-.06.67-2.46,6.78-1.53,12.29.71-.14,9.65-2.39,9.65-2.39,0,0,1.63-3.82,2.46-5.23.44-.75,1.32-1.63,2.23-1.76,3.12-.04,7.44,6.63,7.44,6.63l6.6-.48s-1.03-2.35-1-2.87c.04-.82-.3-1.59-.34-2.51-.1-1.44.61-2.85,1.97-3.45,1.94-.84,4.14-1.11,6.21-1.51,3.81-.63,7.95-.91,11.25,1.48,1.48.94,1.48,2.58.82,4.03-3.15,8.22-11.64,8.48-13,8.48ZM90.86,88.06c.08.33.58.5.87.66.44.24.63.52.89.97.83,1.33,1.43,3.09,2.61,4.13,1.28.72,2.9,1.11,4.33.88,2.43-.52,4.63-1.68,5.98-4,1.61-2.54,3.91-8.32-4.15-8.44-2.86-.04-5.78.51-8.55,1.3-1.61.47-2.6,2.21-1.98,4.5ZM76.7,87.35c-.61.04-4.06,8.77-4.06,8.77,0,0,6.03-2.8,9-3.05-.59-1.25-3.65-5.81-4.94-5.72Z"/>
      <path class="cls-1" d="M34.49,43.97c-4.07.98-8.74,6.5-11.56,10.97-8.93,14.15,2.07,22.82,5.74,24.95,17.75,10.31,18.94,22.07,17.95,25.61-2.3,8.22-8.23,10.15-14.13,11.78-20.6,3.3-27.02-10.68-28.58-16.67-.08-.3.35-.43.46-.15,6.58,16.6,22.81,16.11,27.63,14.63,6.63-2.05,11.66-5.9,11.89-12.44.27-7.69-11.51-17.24-17.99-20.92-6.64-3.78-14.16-13.79-6.07-27.12,2.79-4.59,15.77-18.13,19.51-9.56.12.28-.24.51-.44.29-.87-.95-2.32-1.92-4.42-1.39Z"/>
      <path class="cls-1" d="M36.28,77.2c-.71.14-2.04.31-2.05,1.2.16.46.87.32,1.28.23,2.65-.6,9.54-2.12,9.54-2.12,0,0-.2,4.27.82,4.44,2.81.47,3.22-5.16,3.22-5.16,0,0,6.07-.76,11.53-.74,4.71.02,5.69.6,6.91.66.36-.03.7-.29.54-.57-1.32-2.37-18.81-.66-18.81-.66,0,0,1.31-19.08.61-30.45-.2-2.27-.72-11.48-1.42-13.65-.67-1.92-2.87-2.07-3.38,0-.28,1.4.57,6.75.85,14.42.38,10.39-.7,30.2-.7,30.2"/>
      <path class="cls-1" d="M73.89,68.48s-.23,1.32-.3,1.76c-.24,1.87-.6,7.52-.98,8.49-.67,1.94-3.45,1.16-3.12-1.64.28-2.88,1.43-10.5,1.43-10.5,0,0-3.2-3.05-1.7-6.61,1.06-2.31,4.68-2.94,5.47-1.86.92,1.71-.32,7.17-.32,7.17,0,0,6.04,5.55,8.38,7.6,3.11,2.95,3.93-.13,4.11-3.02.19-2.22.13-4.44-.33-6.64-.26-1.68-.69-2.21-2.32-2.73-.26-.11-.48-.27-.65-.48-.92-1.1-.75-4.03.79-4.57.9-.32,1.71.33,2.08,1.21.16.39.23.87.25,1.27.03,1.23.15,2.42.43,3.62.9,3.57,1.12,7.26.35,10.88-.35,2.12-1.91,3.79-4.18,3.17-2.21-.68-9.39-7.13-9.39-7.13Z"/>
      <path class="cls-1" d="M95.33,70.53s.46,4.42.65,6.24c.16,1.29-.45,3.15-1.95,3.26-1.48.1-2.29-1.12-2.3-2.49-.26-2.93-.55-11.09-.55-11.09,0,0-1.3-1.51-1.6-2.01-.35-.59-.35-1.34-.02-1.94.91-1.87,1.89-3.74,3.03-5.48.75-1.14,4.8-1.06,3.34.87-1.68,3.04-.94,8.85-.94,8.85,0,0,5.27,5.43,7.73,6.12,1.44.49,2.86-.74,3.77-1.77,4.38-5.12-1.05-10.56-1.05-10.56,0,0-.61,1.91-1.16,2.42-.66.61-1.7.24-2.1-.49-.73-1.25-.43-3.13.67-3.94.53-.38,1.18-.64,1.83-.35,2.33,1.51,4.19,5.56,4.34,8.3.27,4.82-3.65,8.58-7.9,7.23-.86-.33-5.8-3.17-5.8-3.17Z"/>
      <path class="cls-1" d="M119.34,58.33c.28.03.66.14.83.33v.02c.1.24-.34.28-.52.32-.76.12-2.81.43-4.31,3.85-1.24,2.83-.17,11.6,3.95,12.32,2.65.83,5.58-.24,7.29-2.32,1.3-1.56,2.06-3.74,2.03-5.79-.19-4.92-5.37-9.4-9.53-9.9-1.17-.02-2.64.53-3.5,1.47-.06.08-1.89.22-1.39-.34,1.14-1.28,3.17-1.87,4.71-1.9,3.52-.04,6.86,2.82,8.74,5.58,1.38,2.04,2.14,5.03,1.46,7.49-.74,3.02-2.88,5.79-5.84,6.56-6.72,2.05-12.78-2.97-11.85-10.01.26-1.79.92-3.33,1.99-4.85.7-.99,3.43-3.06,5.92-2.84Z"/>
      <path class="cls-1" d="M113.22,86.6c0-.5-.26-1,0-1.39.66-.99,9.52-1.93,13.42-2.45.93-.12,1.88-.15,2.81-.08.76.1,2.74.21,2.76,1.15-.05.43-.82.93-1.34.92-.77.03-.94-1-1.53-1.28-.25-.12-.49-.11-.8-.09-4.01.54-8.04,1.09-12,1.63-.42.06-.87.2-1.12.53-.37.46-.55,2.74-.81,3.6-.76,2.47.07,4.96,1.08,7.2.69,1.3,1.18,3.71,2.77,4.06,3.66.37,7.33-1.42,10.79-2.53,1.06-.35,2.2-.56,3.15-1.16.7-.46.88-1.09,1.68-1.18.64-.08,1.66.04,1.9.5.18.36-.1.65-.53.87-2.6.96-5.45,1.44-8.01,2.52-3.26,1.44-6.84,2.75-10.42,1.86-2.01-.52-3.88-2.29-4.55-4.26-1.18-3.43-1.13-7.35.43-9.46.19-.27.34-.59.35-.91v-.05Z"/>
      <path class="cls-1" d="M33.2,37.2c0,.09-.1.14-.17.17-.34.16-1.25.17-1.83-.31-.42-.32-.72-.87-.78-1.47-.37-3,6.58-7.17,8.58-8.26,4.17-2.26,7.62-3.35,12.04-4,11.93-1.75,16.76,4.45,16.54,4.9-.16.31-3.35-2.92-7.19-3.73-7.11-1.49-15.04.85-20.95,3.79-1.91.95-8.16,4.43-7.7,7.36.16.71,1.07,1.08,1.36,1.35.05.05.11.1.11.18v.02Z"/>
    </g>
  </g>
</svg>