<?xml version="1.0" encoding="UTF-8"?>
<svg id="Layer_2" data-name="Layer 2" xmlns="http://www.w3.org/2000/svg" viewBox="0 0 47.76 14.08">
  <defs>
    <style>
      .cls-1 {
        fill: #fff;
        stroke-width: 0px;
      }
    </style>
  </defs>
  <g id="Layer_1-2" data-name="Layer 1">
    <g>
      <g>
        <path class="cls-1" d="M0,11.43V2.52h4.15l4.65,4.69.1.13V2.52h3.67v8.91h-4.14L3.75,6.73l-.08-.11v4.81H0Z"/>
        <path class="cls-1" d="M13.58,11.43V2.52h4.22v8.91h-4.22Z"/>
        <path class="cls-1" d="M18.72,6.98c0-3.03,2.46-4.69,6.45-4.69,3.77,0,6.21,1.52,6.36,4.16h-4.11c-.16-.92-1.08-1.43-2.2-1.43-1.29,0-2.23.61-2.23,1.95s.94,1.98,2.25,1.98c1.13,0,2.05-.47,2.18-1.43h4.1c-.18,2.59-2.63,4.16-6.36,4.16-3.99,0-6.45-1.65-6.45-4.71Z"/>
      </g>
      <g>
        <path class="cls-1" d="M35.32,5.04v-2.52h.45l.31,1.16.06.3h0l-.02-.36v-1.11h.43v2.52h-.45l-.31-1.15-.06-.3h0l.02.36v1.1h-.43Z"/>
        <path class="cls-1" d="M37.18,5.04v-.7l-.42-1.82h.46l.17,1.14v.13h.02v-.13s.18-1.14.18-1.14h.46l-.42,1.82v.7h-.44Z"/>
        <path class="cls-1" d="M38.24,5.04v-2.52h.44v1.03h.09l.21-1.03h.47l-.33,1.22h0s.37,1.3.37,1.3h-.47l-.25-1.1h-.09v1.1h-.44Z"/>
        <path class="cls-1" d="M40.52,5.04l-.05-.43h-.38l-.05.43h-.45l.39-2.52h.61l.39,2.52h-.45ZM40.14,4.24h.28l-.12-.91-.02-.26h0l-.02.26-.11.91Z"/>
        <path class="cls-1" d="M41.17,5.04v-2.52h.59c.38,0,.58.19.58.53v.41c0,.22-.09.37-.27.43h0c.18.05.25.21.25.44v.4c.01.13.03.24.05.31h-.44c-.01-.06-.03-.2-.04-.37v-.4c-.02-.12-.07-.18-.19-.18h-.09v.95h-.44ZM41.61,3.74h.11c.1,0,.17-.05.17-.22v-.43c0-.14-.05-.2-.16-.2h-.12v.84Z"/>
        <path class="cls-1" d="M42.57,5.04v-2.52h.44v2.12h.47v.4h-.92Z"/>
        <path class="cls-1" d="M43.7,5.04v-2.52h.96v.39h-.51v.65h.45v.38h-.45v.7h.53v.4h-.97Z"/>
        <path class="cls-1" d="M44.9,5.04v-2.52h.54c.34,0,.55.16.55.46v.33c0,.17-.06.31-.23.39h0c.2.05.29.2.29.41v.42c0,.32-.18.52-.56.52h-.59ZM45.33,3.56h.09c.12,0,.16-.06.16-.18v-.33c0-.11-.05-.16-.16-.16h-.09v.67ZM45.33,4.68h.1c.12,0,.18-.06.18-.19v-.4c0-.13-.06-.19-.18-.19h-.1v.77Z"/>
        <path class="cls-1" d="M46.54,5.04v-.7l-.42-1.82h.46l.17,1.14v.13h.02v-.13s.18-1.14.18-1.14h.46l-.42,1.82v.7h-.44Z"/>
        <path class="cls-1" d="M35.32,8.24v-2.52h.44v2.52h-.44Z"/>
        <path class="cls-1" d="M36.05,8.24v-2.52h.45l.31,1.16.06.3h0l-.02-.36v-1.11h.43v2.52h-.45l-.31-1.15-.06-.3h0l.02.36v1.1h-.43Z"/>
        <path class="cls-1" d="M37.59,8.24v-2.52h.45l.31,1.16.06.3h0l-.02-.36v-1.11h.43v2.52h-.45l-.31-1.15-.06-.3h0l.02.36v1.1h-.43Z"/>
        <path class="cls-1" d="M39.09,7.59v-1.22c0-.45.2-.69.6-.69s.6.24.6.69v1.22c0,.45-.2.69-.6.69s-.6-.24-.6-.69ZM39.85,7.65v-1.34c0-.17-.06-.23-.16-.23s-.16.07-.16.23v1.34c0,.17.06.24.16.24s.16-.07.16-.24Z"/>
        <path class="cls-1" d="M40.41,5.72h.45l.21,1.73.02.29h0l.02-.29.22-1.73h.45l-.39,2.52h-.59l-.4-2.52Z"/>
        <path class="cls-1" d="M42.66,8.24l-.05-.43h-.38l-.05.43h-.45l.39-2.52h.61l.39,2.52h-.45ZM42.27,7.44h.28l-.12-.91-.02-.26h0l-.02.26-.12.91Z"/>
        <path class="cls-1" d="M43.38,8.24v-2.12h-.33v-.4h1.11v.4h-.33v2.12h-.44Z"/>
        <path class="cls-1" d="M44.35,8.24v-2.52h.44v2.52h-.44Z"/>
        <path class="cls-1" d="M45.06,7.59v-1.22c0-.45.2-.69.6-.69s.6.24.6.69v1.22c0,.45-.2.69-.6.69s-.6-.24-.6-.69ZM45.82,7.65v-1.34c0-.17-.06-.23-.16-.23s-.16.07-.16.23v1.34c0,.17.06.24.16.24s.16-.07.16-.24Z"/>
        <path class="cls-1" d="M46.52,8.24v-2.52h.45l.31,1.16.06.3h0l-.02-.36v-1.11h.43v2.52h-.45l-.31-1.15-.06-.3h0l.02.36v1.1h-.43Z"/>
        <path class="cls-1" d="M35.29,10.79v-1.22c0-.46.2-.69.6-.69s.6.25.6.67v.35h-.44v-.39c0-.14-.03-.23-.15-.23-.09,0-.16.07-.16.23v1.34c0,.17.06.24.16.24.11,0,.15-.07.15-.23v-.44h.44v.39c0,.42-.17.67-.6.67-.39,0-.6-.23-.6-.69Z"/>
        <path class="cls-1" d="M36.73,11.44v-2.52h.96v.39h-.51v.65h.45v.38h-.45v.7h.53v.4h-.97Z"/>
        <path class="cls-1" d="M37.93,11.44v-2.52h.45l.31,1.16.06.3h0l-.02-.36v-1.11h.43v2.52h-.45l-.31-1.15-.06-.3h0l.02.36v1.1h-.43Z"/>
        <path class="cls-1" d="M39.71,11.44v-2.12h-.33v-.4h1.11v.4h-.33v2.12h-.44Z"/>
        <path class="cls-1" d="M40.68,11.44v-2.52h.96v.39h-.51v.65h.45v.38h-.45v.7h.52v.4h-.97Z"/>
        <path class="cls-1" d="M41.88,11.44v-2.52h.59c.38,0,.58.19.58.53v.41c0,.22-.09.37-.27.43h0c.18.05.25.21.25.44v.4c.01.13.03.24.05.31h-.44c-.01-.06-.03-.2-.04-.37v-.4c-.02-.12-.07-.18-.19-.18h-.09v.95h-.44ZM42.33,10.13h.11c.1,0,.17-.05.17-.22v-.43c0-.14-.05-.2-.16-.2h-.12v.84Z"/>
      </g>
      <rect class="cls-1" x="33.35" width=".28" height="14.08"/>
    </g>
  </g>
</svg>